%TF.GenerationSoftware,KiCad,Pcbnew,7.0.0-da2b9df05c~171~ubuntu22.04.1*%
%TF.CreationDate,2023-03-16T18:49:30-03:00*%
%TF.ProjectId,side_board,73696465-5f62-46f6-9172-642e6b696361,rev?*%
%TF.SameCoordinates,Original*%
%TF.FileFunction,Copper,L1,Top*%
%TF.FilePolarity,Positive*%
%FSLAX46Y46*%
G04 Gerber Fmt 4.6, Leading zero omitted, Abs format (unit mm)*
G04 Created by KiCad (PCBNEW 7.0.0-da2b9df05c~171~ubuntu22.04.1) date 2023-03-16 18:49:30*
%MOMM*%
%LPD*%
G01*
G04 APERTURE LIST*
G04 Aperture macros list*
%AMRoundRect*
0 Rectangle with rounded corners*
0 $1 Rounding radius*
0 $2 $3 $4 $5 $6 $7 $8 $9 X,Y pos of 4 corners*
0 Add a 4 corners polygon primitive as box body*
4,1,4,$2,$3,$4,$5,$6,$7,$8,$9,$2,$3,0*
0 Add four circle primitives for the rounded corners*
1,1,$1+$1,$2,$3*
1,1,$1+$1,$4,$5*
1,1,$1+$1,$6,$7*
1,1,$1+$1,$8,$9*
0 Add four rect primitives between the rounded corners*
20,1,$1+$1,$2,$3,$4,$5,0*
20,1,$1+$1,$4,$5,$6,$7,0*
20,1,$1+$1,$6,$7,$8,$9,0*
20,1,$1+$1,$8,$9,$2,$3,0*%
G04 Aperture macros list end*
%TA.AperFunction,SMDPad,CuDef*%
%ADD10R,1.000000X1.500000*%
%TD*%
%TA.AperFunction,ComponentPad*%
%ADD11RoundRect,0.250000X0.600000X-0.600000X0.600000X0.600000X-0.600000X0.600000X-0.600000X-0.600000X0*%
%TD*%
%TA.AperFunction,ComponentPad*%
%ADD12C,1.700000*%
%TD*%
%TA.AperFunction,ComponentPad*%
%ADD13C,2.200000*%
%TD*%
%TA.AperFunction,SMDPad,CuDef*%
%ADD14R,0.900000X1.500000*%
%TD*%
%TA.AperFunction,ComponentPad*%
%ADD15R,2.800000X2.800000*%
%TD*%
%TA.AperFunction,ComponentPad*%
%ADD16O,2.800000X2.800000*%
%TD*%
%TA.AperFunction,ViaPad*%
%ADD17C,0.800000*%
%TD*%
%TA.AperFunction,Conductor*%
%ADD18C,0.400000*%
%TD*%
G04 APERTURE END LIST*
D10*
%TO.P,D22,1,VDD*%
%TO.N,GND*%
X158509999Y-130719999D03*
%TO.P,D22,2,DOUT*%
%TO.N,unconnected-(D22-DOUT-Pad2)*%
X161709999Y-130719999D03*
%TO.P,D22,3,VSS*%
%TO.N,+5V*%
X161709999Y-125819999D03*
%TO.P,D22,4,DIN*%
%TO.N,Net-(D21-DOUT)*%
X158509999Y-125819999D03*
%TD*%
%TO.P,D21,1,VDD*%
%TO.N,GND*%
X130479999Y-130719999D03*
%TO.P,D21,2,DOUT*%
%TO.N,Net-(D21-DOUT)*%
X133679999Y-130719999D03*
%TO.P,D21,3,VSS*%
%TO.N,+5V*%
X133679999Y-125819999D03*
%TO.P,D21,4,DIN*%
%TO.N,Net-(D20-DOUT)*%
X130479999Y-125819999D03*
%TD*%
%TO.P,D20,1,VDD*%
%TO.N,GND*%
X102539999Y-130719999D03*
%TO.P,D20,2,DOUT*%
%TO.N,Net-(D20-DOUT)*%
X105739999Y-130719999D03*
%TO.P,D20,3,VSS*%
%TO.N,+5V*%
X105739999Y-125819999D03*
%TO.P,D20,4,DIN*%
%TO.N,Net-(D20-DIN)*%
X102539999Y-125819999D03*
%TD*%
D11*
%TO.P,J1,1,Pin_1*%
%TO.N,GND*%
X58420000Y-53957500D03*
D12*
%TO.P,J1,2,Pin_2*%
%TO.N,+5V*%
X58420000Y-51417500D03*
%TO.P,J1,3,Pin_3*%
%TO.N,dpad_column_H*%
X60960000Y-53957500D03*
%TO.P,J1,4,Pin_4*%
%TO.N,dpad_row_3*%
X60960000Y-51417500D03*
%TO.P,J1,5,Pin_5*%
%TO.N,dpad_column_G*%
X63500000Y-53957500D03*
%TO.P,J1,6,Pin_6*%
%TO.N,dpad_row_2*%
X63500000Y-51417500D03*
%TO.P,J1,7,Pin_7*%
%TO.N,dpad_column_F*%
X66040000Y-53957500D03*
%TO.P,J1,8,Pin_8*%
%TO.N,dpad_row_1*%
X66040000Y-51417500D03*
%TO.P,J1,9,Pin_9*%
%TO.N,dpad_column_E*%
X68580000Y-53957500D03*
%TO.P,J1,10,Pin_10*%
%TO.N,padsLED_R*%
X68580000Y-51417500D03*
%TD*%
D13*
%TO.P,SW4,1,A*%
%TO.N,Net-(D12-K)*%
X78740000Y-81280000D03*
%TO.P,SW4,2,B*%
%TO.N,dpad_column_F*%
X72390000Y-83820000D03*
%TD*%
D14*
%TO.P,D8,1,VDD*%
%TO.N,GND*%
X74549999Y-130719999D03*
%TO.P,D8,2,DOUT*%
%TO.N,Net-(D20-DIN)*%
X77849999Y-130719999D03*
%TO.P,D8,3,VSS*%
%TO.N,+5V*%
X77849999Y-125819999D03*
%TO.P,D8,4,DIN*%
%TO.N,Net-(D7-DOUT)*%
X74549999Y-125819999D03*
%TD*%
D13*
%TO.P,SW6,1,A*%
%TO.N,Net-(D14-K)*%
X134620000Y-81280000D03*
%TO.P,SW6,2,B*%
%TO.N,dpad_column_F*%
X128270000Y-83820000D03*
%TD*%
%TO.P,SW1,2,B*%
%TO.N,dpad_column_E*%
X90170000Y-53340000D03*
%TO.P,SW1,1,A*%
%TO.N,Net-(D9-K)*%
X96520000Y-50800000D03*
%TD*%
%TO.P,SW8,1,A*%
%TO.N,Net-(D16-K)*%
X78740000Y-109220000D03*
%TO.P,SW8,2,B*%
%TO.N,dpad_column_G*%
X72390000Y-111760000D03*
%TD*%
D15*
%TO.P,D9,1,K*%
%TO.N,Net-(D9-K)*%
X106679999Y-50799999D03*
D16*
%TO.P,D9,2,A*%
%TO.N,dpad_row_1*%
X106679999Y-63499999D03*
%TD*%
D13*
%TO.P,SW11,1,A*%
%TO.N,Net-(D19-K)*%
X162560000Y-109220000D03*
%TO.P,SW11,2,B*%
%TO.N,dpad_column_H*%
X156210000Y-111760000D03*
%TD*%
D14*
%TO.P,D7,4,DIN*%
%TO.N,Net-(D6-DOUT)*%
X158369999Y-97879999D03*
%TO.P,D7,3,VSS*%
%TO.N,+5V*%
X161669999Y-97879999D03*
%TO.P,D7,2,DOUT*%
%TO.N,Net-(D7-DOUT)*%
X161669999Y-102779999D03*
%TO.P,D7,1,VDD*%
%TO.N,GND*%
X158369999Y-102779999D03*
%TD*%
D13*
%TO.P,SW10,1,A*%
%TO.N,Net-(D18-K)*%
X134620000Y-109220000D03*
%TO.P,SW10,2,B*%
%TO.N,dpad_column_H*%
X128270000Y-111760000D03*
%TD*%
D14*
%TO.P,D4,4,DIN*%
%TO.N,Net-(D3-DOUT)*%
X74549999Y-97879999D03*
%TO.P,D4,3,VSS*%
%TO.N,+5V*%
X77849999Y-97879999D03*
%TO.P,D4,2,DOUT*%
%TO.N,Net-(D4-DOUT)*%
X77849999Y-102779999D03*
%TO.P,D4,1,VDD*%
%TO.N,GND*%
X74549999Y-102779999D03*
%TD*%
D15*
%TO.P,D17,1,K*%
%TO.N,Net-(D17-K)*%
X116839999Y-109219999D03*
D16*
%TO.P,D17,2,A*%
%TO.N,dpad_row_3*%
X116839999Y-121919999D03*
%TD*%
D13*
%TO.P,SW3,2,B*%
%TO.N,dpad_column_E*%
X140970000Y-53340000D03*
%TO.P,SW3,1,A*%
%TO.N,Net-(D11-K)*%
X147320000Y-50800000D03*
%TD*%
D15*
%TO.P,D15,1,K*%
%TO.N,Net-(D15-K)*%
X172719999Y-81279999D03*
D16*
%TO.P,D15,2,A*%
%TO.N,dpad_row_1*%
X172719999Y-93979999D03*
%TD*%
D15*
%TO.P,D10,1,K*%
%TO.N,Net-(D10-K)*%
X132079999Y-50799999D03*
D16*
%TO.P,D10,2,A*%
%TO.N,dpad_row_2*%
X132079999Y-63499999D03*
%TD*%
D14*
%TO.P,D3,1,VDD*%
%TO.N,GND*%
X143219999Y-72299999D03*
%TO.P,D3,2,DOUT*%
%TO.N,Net-(D3-DOUT)*%
X146519999Y-72299999D03*
%TO.P,D3,3,VSS*%
%TO.N,+5V*%
X146519999Y-67399999D03*
%TO.P,D3,4,DIN*%
%TO.N,Net-(D2-DOUT)*%
X143219999Y-67399999D03*
%TD*%
D15*
%TO.P,D12,1,K*%
%TO.N,Net-(D12-K)*%
X88899999Y-81279999D03*
D16*
%TO.P,D12,2,A*%
%TO.N,dpad_row_1*%
X88899999Y-93979999D03*
%TD*%
D14*
%TO.P,D2,1,VDD*%
%TO.N,GND*%
X117729999Y-72299999D03*
%TO.P,D2,2,DOUT*%
%TO.N,Net-(D2-DOUT)*%
X121029999Y-72299999D03*
%TO.P,D2,3,VSS*%
%TO.N,+5V*%
X121029999Y-67399999D03*
%TO.P,D2,4,DIN*%
%TO.N,Net-(D1-DOUT)*%
X117729999Y-67399999D03*
%TD*%
D15*
%TO.P,D13,1,K*%
%TO.N,Net-(D13-K)*%
X116839999Y-81279999D03*
D16*
%TO.P,D13,2,A*%
%TO.N,dpad_row_2*%
X116839999Y-93979999D03*
%TD*%
D13*
%TO.P,SW9,2,B*%
%TO.N,dpad_column_G*%
X100330000Y-111760000D03*
%TO.P,SW9,1,A*%
%TO.N,Net-(D17-K)*%
X106680000Y-109220000D03*
%TD*%
%TO.P,SW7,1,A*%
%TO.N,Net-(D15-K)*%
X162560000Y-81280000D03*
%TO.P,SW7,2,B*%
%TO.N,dpad_column_G*%
X156210000Y-83820000D03*
%TD*%
D15*
%TO.P,D11,1,K*%
%TO.N,Net-(D11-K)*%
X157479999Y-50799999D03*
D16*
%TO.P,D11,2,A*%
%TO.N,dpad_row_3*%
X157479999Y-63499999D03*
%TD*%
D15*
%TO.P,D19,1,K*%
%TO.N,Net-(D19-K)*%
X172719999Y-109219999D03*
D16*
%TO.P,D19,2,A*%
%TO.N,dpad_row_3*%
X172719999Y-121919999D03*
%TD*%
D14*
%TO.P,D6,4,DIN*%
%TO.N,Net-(D5-DOUT)*%
X130429999Y-97879999D03*
%TO.P,D6,3,VSS*%
%TO.N,+5V*%
X133729999Y-97879999D03*
%TO.P,D6,2,DOUT*%
%TO.N,Net-(D6-DOUT)*%
X133729999Y-102779999D03*
%TO.P,D6,1,VDD*%
%TO.N,GND*%
X130429999Y-102779999D03*
%TD*%
%TO.P,D5,4,DIN*%
%TO.N,Net-(D4-DOUT)*%
X102579999Y-97879999D03*
%TO.P,D5,3,VSS*%
%TO.N,+5V*%
X105879999Y-97879999D03*
%TO.P,D5,2,DOUT*%
%TO.N,Net-(D5-DOUT)*%
X105879999Y-102779999D03*
%TO.P,D5,1,VDD*%
%TO.N,GND*%
X102579999Y-102779999D03*
%TD*%
%TO.P,D1,1,VDD*%
%TO.N,GND*%
X92419999Y-72299999D03*
%TO.P,D1,2,DOUT*%
%TO.N,Net-(D1-DOUT)*%
X95719999Y-72299999D03*
%TO.P,D1,3,VSS*%
%TO.N,+5V*%
X95719999Y-67399999D03*
%TO.P,D1,4,DIN*%
%TO.N,padsLED_R*%
X92419999Y-67399999D03*
%TD*%
D13*
%TO.P,SW5,1,A*%
%TO.N,Net-(D13-K)*%
X106680000Y-81280000D03*
%TO.P,SW5,2,B*%
%TO.N,dpad_column_F*%
X100330000Y-83820000D03*
%TD*%
%TO.P,SW2,1,A*%
%TO.N,Net-(D10-K)*%
X121920000Y-50800000D03*
%TO.P,SW2,2,B*%
%TO.N,dpad_column_E*%
X115570000Y-53340000D03*
%TD*%
D15*
%TO.P,D14,1,K*%
%TO.N,Net-(D14-K)*%
X144779999Y-81279999D03*
D16*
%TO.P,D14,2,A*%
%TO.N,dpad_row_3*%
X144779999Y-93979999D03*
%TD*%
D15*
%TO.P,D16,1,K*%
%TO.N,Net-(D16-K)*%
X88899999Y-109219999D03*
D16*
%TO.P,D16,2,A*%
%TO.N,dpad_row_2*%
X88899999Y-121919999D03*
%TD*%
D15*
%TO.P,D18,1,K*%
%TO.N,Net-(D18-K)*%
X144779999Y-109219999D03*
D16*
%TO.P,D18,2,A*%
%TO.N,dpad_row_2*%
X144779999Y-121919999D03*
%TD*%
D17*
%TO.N,dpad_row_2*%
X153670000Y-99060000D03*
X144780000Y-99060000D03*
%TO.N,dpad_row_1*%
X165100000Y-59690000D03*
X165100000Y-66040000D03*
%TO.N,dpad_row_2*%
X92710000Y-120650000D03*
X92710000Y-109220000D03*
%TO.N,dpad_row_1*%
X93980000Y-86360000D03*
X93980000Y-81280000D03*
%TO.N,dpad_row_2*%
X120650000Y-86360000D03*
X120650000Y-81280000D03*
%TD*%
D18*
%TO.N,dpad_row_2*%
X144780000Y-99060000D02*
X153670000Y-99060000D01*
%TO.N,dpad_row_1*%
X165100000Y-59690000D02*
X165100000Y-66040000D01*
%TO.N,dpad_row_2*%
X92710000Y-109220000D02*
X92710000Y-120650000D01*
%TO.N,+5V*%
X177800000Y-71120000D02*
X177800000Y-101600000D01*
X177800000Y-101600000D02*
X177800000Y-124460000D01*
X161670000Y-97880000D02*
X174080000Y-97880000D01*
X174080000Y-97880000D02*
X177800000Y-101600000D01*
X146520000Y-67400000D02*
X174080000Y-67400000D01*
X174080000Y-67400000D02*
X177800000Y-71120000D01*
X177800000Y-124460000D02*
X176440000Y-125820000D01*
X176440000Y-125820000D02*
X161710000Y-125820000D01*
%TO.N,GND*%
X58420000Y-127000000D02*
X62230000Y-130810000D01*
X58420000Y-99060000D02*
X58420000Y-127000000D01*
X62230000Y-130810000D02*
X62320000Y-130720000D01*
X62320000Y-130720000D02*
X74550000Y-130720000D01*
X58420000Y-99060000D02*
X62230000Y-102870000D01*
X58420000Y-68580000D02*
X58420000Y-99060000D01*
X62230000Y-102870000D02*
X62320000Y-102780000D01*
X62320000Y-102780000D02*
X74550000Y-102780000D01*
%TO.N,dpad_row_2*%
X120650000Y-81280000D02*
X120650000Y-86360000D01*
%TO.N,dpad_row_1*%
X93980000Y-81280000D02*
X93980000Y-86360000D01*
%TO.N,GND*%
X62140000Y-72300000D02*
X58420000Y-68580000D01*
X92420000Y-72300000D02*
X62140000Y-72300000D01*
X58420000Y-68580000D02*
X58420000Y-53957500D01*
%TO.N,+5V*%
X80010000Y-63500000D02*
X81280000Y-64770000D01*
X80010000Y-53340000D02*
X80010000Y-63500000D01*
X58420000Y-49530000D02*
X59690000Y-48260000D01*
X58420000Y-51417500D02*
X58420000Y-49530000D01*
X59690000Y-48260000D02*
X74930000Y-48260000D01*
X74930000Y-48260000D02*
X80010000Y-53340000D01*
X81280000Y-64770000D02*
X93090000Y-64770000D01*
X93090000Y-64770000D02*
X95720000Y-67400000D01*
%TO.N,padsLED_R*%
X75547500Y-51417500D02*
X77470000Y-53340000D01*
X68580000Y-51417500D02*
X75547500Y-51417500D01*
X77470000Y-64770000D02*
X77470000Y-53340000D01*
X92420000Y-67400000D02*
X80100000Y-67400000D01*
X80100000Y-67400000D02*
X77470000Y-64770000D01*
%TO.N,Net-(D7-DOUT)*%
X66040000Y-124460000D02*
X67400000Y-125820000D01*
X67400000Y-125820000D02*
X74550000Y-125820000D01*
X161670000Y-102780000D02*
X161670000Y-103760000D01*
X161670000Y-103760000D02*
X158750000Y-106680000D01*
X158750000Y-106680000D02*
X67310000Y-106680000D01*
X67310000Y-106680000D02*
X66040000Y-107950000D01*
X66040000Y-107950000D02*
X66040000Y-124460000D01*
%TO.N,+5V*%
X134620000Y-124460000D02*
X161290000Y-124460000D01*
X161290000Y-124460000D02*
X161710000Y-124880000D01*
X161710000Y-124880000D02*
X161710000Y-125820000D01*
X161670000Y-97880000D02*
X161670000Y-96900000D01*
X161670000Y-96900000D02*
X161290000Y-96520000D01*
X161290000Y-96520000D02*
X134620000Y-96520000D01*
X121920000Y-66040000D02*
X146050000Y-66040000D01*
X146050000Y-66040000D02*
X146520000Y-66510000D01*
X146520000Y-66510000D02*
X146520000Y-67400000D01*
%TO.N,Net-(D3-DOUT)*%
X146520000Y-72300000D02*
X146520000Y-74460000D01*
X146520000Y-74460000D02*
X144780000Y-76200000D01*
X66040000Y-96520000D02*
X67400000Y-97880000D01*
X144780000Y-76200000D02*
X67310000Y-76200000D01*
X67310000Y-76200000D02*
X66040000Y-77470000D01*
X66040000Y-77470000D02*
X66040000Y-96520000D01*
X67400000Y-97880000D02*
X74550000Y-97880000D01*
%TO.N,GND*%
X76200000Y-133350000D02*
X157480000Y-133350000D01*
X158510000Y-132320000D02*
X157480000Y-133350000D01*
X158510000Y-130720000D02*
X158510000Y-132320000D01*
X130480000Y-132410000D02*
X129540000Y-133350000D01*
X130480000Y-130720000D02*
X130480000Y-132410000D01*
X102540000Y-132410000D02*
X101600000Y-133350000D01*
X102540000Y-130720000D02*
X102540000Y-132410000D01*
X114300000Y-105410000D02*
X157480000Y-105410000D01*
X158370000Y-104520000D02*
X157480000Y-105410000D01*
X158370000Y-102780000D02*
X158370000Y-104520000D01*
X130430000Y-104520000D02*
X129540000Y-105410000D01*
X130430000Y-102780000D02*
X130430000Y-104520000D01*
X82550000Y-105410000D02*
X101600000Y-105410000D01*
X101600000Y-105410000D02*
X104140000Y-105410000D01*
X102580000Y-102780000D02*
X102580000Y-104430000D01*
X102580000Y-104430000D02*
X101600000Y-105410000D01*
X104140000Y-105410000D02*
X114300000Y-105410000D01*
X115570000Y-74930000D02*
X140970000Y-74930000D01*
X143220000Y-72300000D02*
X143220000Y-72680000D01*
X143220000Y-72680000D02*
X140970000Y-74930000D01*
X93980000Y-74930000D02*
X115570000Y-74930000D01*
X117730000Y-72300000D02*
X117730000Y-72770000D01*
X117730000Y-72770000D02*
X115570000Y-74930000D01*
X92420000Y-72300000D02*
X92420000Y-73370000D01*
X92420000Y-73370000D02*
X93980000Y-74930000D01*
X76200000Y-105410000D02*
X82550000Y-105410000D01*
X74550000Y-102780000D02*
X74550000Y-103760000D01*
X74550000Y-103760000D02*
X76200000Y-105410000D01*
X74550000Y-130720000D02*
X74550000Y-131700000D01*
X74550000Y-131700000D02*
X76200000Y-133350000D01*
%TO.N,+5V*%
X106680000Y-124460000D02*
X134620000Y-124460000D01*
X133680000Y-125820000D02*
X133680000Y-125400000D01*
X133680000Y-125400000D02*
X134620000Y-124460000D01*
X80010000Y-124460000D02*
X106680000Y-124460000D01*
X105740000Y-125400000D02*
X106680000Y-124460000D01*
X105740000Y-125820000D02*
X105740000Y-125400000D01*
X77850000Y-125820000D02*
X79210000Y-124460000D01*
X79210000Y-124460000D02*
X80010000Y-124460000D01*
X106680000Y-96520000D02*
X134620000Y-96520000D01*
X133730000Y-97880000D02*
X133730000Y-97410000D01*
X133730000Y-97410000D02*
X134620000Y-96520000D01*
X78740000Y-96520000D02*
X106680000Y-96520000D01*
X105880000Y-97880000D02*
X105880000Y-97320000D01*
X105880000Y-97320000D02*
X106680000Y-96520000D01*
X77850000Y-97410000D02*
X78740000Y-96520000D01*
X77850000Y-97880000D02*
X77850000Y-97410000D01*
X97080000Y-66040000D02*
X121920000Y-66040000D01*
X121030000Y-66930000D02*
X121920000Y-66040000D01*
X121030000Y-67400000D02*
X121030000Y-66930000D01*
X95720000Y-67400000D02*
X97080000Y-66040000D01*
%TO.N,Net-(D21-DOUT)*%
X133680000Y-130720000D02*
X153610000Y-130720000D01*
X153610000Y-130720000D02*
X158510000Y-125820000D01*
%TO.N,Net-(D20-DOUT)*%
X105740000Y-130720000D02*
X125580000Y-130720000D01*
X125580000Y-130720000D02*
X130480000Y-125820000D01*
%TO.N,Net-(D20-DIN)*%
X77850000Y-130720000D02*
X97640000Y-130720000D01*
X97640000Y-130720000D02*
X102540000Y-125820000D01*
%TO.N,Net-(D6-DOUT)*%
X133730000Y-102780000D02*
X153470000Y-102780000D01*
X153470000Y-102780000D02*
X158370000Y-97880000D01*
%TO.N,Net-(D5-DOUT)*%
X105880000Y-102780000D02*
X125530000Y-102780000D01*
X125530000Y-102780000D02*
X130430000Y-97880000D01*
%TO.N,Net-(D4-DOUT)*%
X77850000Y-102780000D02*
X97680000Y-102780000D01*
X97680000Y-102780000D02*
X102580000Y-97880000D01*
%TO.N,Net-(D2-DOUT)*%
X121030000Y-72300000D02*
X138320000Y-72300000D01*
X138320000Y-72300000D02*
X143220000Y-67400000D01*
%TO.N,Net-(D1-DOUT)*%
X95720000Y-72300000D02*
X112830000Y-72300000D01*
X112830000Y-72300000D02*
X117730000Y-67400000D01*
%TD*%
M02*
