%TF.GenerationSoftware,KiCad,Pcbnew,7.0.0-da2b9df05c~171~ubuntu22.04.1*%
%TF.CreationDate,2023-03-16T18:49:30-03:00*%
%TF.ProjectId,side_board,73696465-5f62-46f6-9172-642e6b696361,rev?*%
%TF.SameCoordinates,Original*%
%TF.FileFunction,Copper,L2,Bot*%
%TF.FilePolarity,Positive*%
%FSLAX46Y46*%
G04 Gerber Fmt 4.6, Leading zero omitted, Abs format (unit mm)*
G04 Created by KiCad (PCBNEW 7.0.0-da2b9df05c~171~ubuntu22.04.1) date 2023-03-16 18:49:30*
%MOMM*%
%LPD*%
G01*
G04 APERTURE LIST*
G04 Aperture macros list*
%AMRoundRect*
0 Rectangle with rounded corners*
0 $1 Rounding radius*
0 $2 $3 $4 $5 $6 $7 $8 $9 X,Y pos of 4 corners*
0 Add a 4 corners polygon primitive as box body*
4,1,4,$2,$3,$4,$5,$6,$7,$8,$9,$2,$3,0*
0 Add four circle primitives for the rounded corners*
1,1,$1+$1,$2,$3*
1,1,$1+$1,$4,$5*
1,1,$1+$1,$6,$7*
1,1,$1+$1,$8,$9*
0 Add four rect primitives between the rounded corners*
20,1,$1+$1,$2,$3,$4,$5,0*
20,1,$1+$1,$4,$5,$6,$7,0*
20,1,$1+$1,$6,$7,$8,$9,0*
20,1,$1+$1,$8,$9,$2,$3,0*%
G04 Aperture macros list end*
%TA.AperFunction,ComponentPad*%
%ADD10RoundRect,0.250000X0.600000X-0.600000X0.600000X0.600000X-0.600000X0.600000X-0.600000X-0.600000X0*%
%TD*%
%TA.AperFunction,ComponentPad*%
%ADD11C,1.700000*%
%TD*%
%TA.AperFunction,ComponentPad*%
%ADD12C,2.200000*%
%TD*%
%TA.AperFunction,ComponentPad*%
%ADD13R,2.800000X2.800000*%
%TD*%
%TA.AperFunction,ComponentPad*%
%ADD14O,2.800000X2.800000*%
%TD*%
%TA.AperFunction,ViaPad*%
%ADD15C,0.800000*%
%TD*%
%TA.AperFunction,Conductor*%
%ADD16C,0.400000*%
%TD*%
G04 APERTURE END LIST*
D10*
%TO.P,J1,1,Pin_1*%
%TO.N,GND*%
X58420000Y-53957500D03*
D11*
%TO.P,J1,2,Pin_2*%
%TO.N,+5V*%
X58420000Y-51417500D03*
%TO.P,J1,3,Pin_3*%
%TO.N,dpad_column_H*%
X60960000Y-53957500D03*
%TO.P,J1,4,Pin_4*%
%TO.N,dpad_row_3*%
X60960000Y-51417500D03*
%TO.P,J1,5,Pin_5*%
%TO.N,dpad_column_G*%
X63500000Y-53957500D03*
%TO.P,J1,6,Pin_6*%
%TO.N,dpad_row_2*%
X63500000Y-51417500D03*
%TO.P,J1,7,Pin_7*%
%TO.N,dpad_column_F*%
X66040000Y-53957500D03*
%TO.P,J1,8,Pin_8*%
%TO.N,dpad_row_1*%
X66040000Y-51417500D03*
%TO.P,J1,9,Pin_9*%
%TO.N,dpad_column_E*%
X68580000Y-53957500D03*
%TO.P,J1,10,Pin_10*%
%TO.N,padsLED_R*%
X68580000Y-51417500D03*
%TD*%
D12*
%TO.P,SW4,1,A*%
%TO.N,Net-(D12-K)*%
X78740000Y-81280000D03*
%TO.P,SW4,2,B*%
%TO.N,dpad_column_F*%
X72390000Y-83820000D03*
%TD*%
%TO.P,SW6,1,A*%
%TO.N,Net-(D14-K)*%
X134620000Y-81280000D03*
%TO.P,SW6,2,B*%
%TO.N,dpad_column_F*%
X128270000Y-83820000D03*
%TD*%
%TO.P,SW1,2,B*%
%TO.N,dpad_column_E*%
X90170000Y-53340000D03*
%TO.P,SW1,1,A*%
%TO.N,Net-(D9-K)*%
X96520000Y-50800000D03*
%TD*%
%TO.P,SW8,1,A*%
%TO.N,Net-(D16-K)*%
X78740000Y-109220000D03*
%TO.P,SW8,2,B*%
%TO.N,dpad_column_G*%
X72390000Y-111760000D03*
%TD*%
D13*
%TO.P,D9,1,K*%
%TO.N,Net-(D9-K)*%
X106679999Y-50799999D03*
D14*
%TO.P,D9,2,A*%
%TO.N,dpad_row_1*%
X106679999Y-63499999D03*
%TD*%
D12*
%TO.P,SW11,1,A*%
%TO.N,Net-(D19-K)*%
X162560000Y-109220000D03*
%TO.P,SW11,2,B*%
%TO.N,dpad_column_H*%
X156210000Y-111760000D03*
%TD*%
%TO.P,SW10,1,A*%
%TO.N,Net-(D18-K)*%
X134620000Y-109220000D03*
%TO.P,SW10,2,B*%
%TO.N,dpad_column_H*%
X128270000Y-111760000D03*
%TD*%
D13*
%TO.P,D17,1,K*%
%TO.N,Net-(D17-K)*%
X116839999Y-109219999D03*
D14*
%TO.P,D17,2,A*%
%TO.N,dpad_row_3*%
X116839999Y-121919999D03*
%TD*%
D12*
%TO.P,SW3,2,B*%
%TO.N,dpad_column_E*%
X140970000Y-53340000D03*
%TO.P,SW3,1,A*%
%TO.N,Net-(D11-K)*%
X147320000Y-50800000D03*
%TD*%
D13*
%TO.P,D15,1,K*%
%TO.N,Net-(D15-K)*%
X172719999Y-81279999D03*
D14*
%TO.P,D15,2,A*%
%TO.N,dpad_row_1*%
X172719999Y-93979999D03*
%TD*%
D13*
%TO.P,D10,1,K*%
%TO.N,Net-(D10-K)*%
X132079999Y-50799999D03*
D14*
%TO.P,D10,2,A*%
%TO.N,dpad_row_2*%
X132079999Y-63499999D03*
%TD*%
D13*
%TO.P,D12,1,K*%
%TO.N,Net-(D12-K)*%
X88899999Y-81279999D03*
D14*
%TO.P,D12,2,A*%
%TO.N,dpad_row_1*%
X88899999Y-93979999D03*
%TD*%
D13*
%TO.P,D13,1,K*%
%TO.N,Net-(D13-K)*%
X116839999Y-81279999D03*
D14*
%TO.P,D13,2,A*%
%TO.N,dpad_row_2*%
X116839999Y-93979999D03*
%TD*%
D12*
%TO.P,SW9,2,B*%
%TO.N,dpad_column_G*%
X100330000Y-111760000D03*
%TO.P,SW9,1,A*%
%TO.N,Net-(D17-K)*%
X106680000Y-109220000D03*
%TD*%
%TO.P,SW7,1,A*%
%TO.N,Net-(D15-K)*%
X162560000Y-81280000D03*
%TO.P,SW7,2,B*%
%TO.N,dpad_column_G*%
X156210000Y-83820000D03*
%TD*%
D13*
%TO.P,D11,1,K*%
%TO.N,Net-(D11-K)*%
X157479999Y-50799999D03*
D14*
%TO.P,D11,2,A*%
%TO.N,dpad_row_3*%
X157479999Y-63499999D03*
%TD*%
D13*
%TO.P,D19,1,K*%
%TO.N,Net-(D19-K)*%
X172719999Y-109219999D03*
D14*
%TO.P,D19,2,A*%
%TO.N,dpad_row_3*%
X172719999Y-121919999D03*
%TD*%
D12*
%TO.P,SW5,1,A*%
%TO.N,Net-(D13-K)*%
X106680000Y-81280000D03*
%TO.P,SW5,2,B*%
%TO.N,dpad_column_F*%
X100330000Y-83820000D03*
%TD*%
%TO.P,SW2,1,A*%
%TO.N,Net-(D10-K)*%
X121920000Y-50800000D03*
%TO.P,SW2,2,B*%
%TO.N,dpad_column_E*%
X115570000Y-53340000D03*
%TD*%
D13*
%TO.P,D14,1,K*%
%TO.N,Net-(D14-K)*%
X144779999Y-81279999D03*
D14*
%TO.P,D14,2,A*%
%TO.N,dpad_row_3*%
X144779999Y-93979999D03*
%TD*%
D13*
%TO.P,D16,1,K*%
%TO.N,Net-(D16-K)*%
X88899999Y-109219999D03*
D14*
%TO.P,D16,2,A*%
%TO.N,dpad_row_2*%
X88899999Y-121919999D03*
%TD*%
D13*
%TO.P,D18,1,K*%
%TO.N,Net-(D18-K)*%
X144779999Y-109219999D03*
D14*
%TO.P,D18,2,A*%
%TO.N,dpad_row_2*%
X144779999Y-121919999D03*
%TD*%
D15*
%TO.N,dpad_row_2*%
X153670000Y-99060000D03*
X144780000Y-99060000D03*
%TO.N,dpad_row_1*%
X165100000Y-59690000D03*
X165100000Y-66040000D03*
%TO.N,dpad_row_2*%
X92710000Y-120650000D03*
X92710000Y-109220000D03*
%TO.N,dpad_row_1*%
X93980000Y-86360000D03*
X93980000Y-81280000D03*
%TO.N,dpad_row_2*%
X120650000Y-86360000D03*
X120650000Y-81280000D03*
%TD*%
D16*
%TO.N,dpad_row_2*%
X123190000Y-99060000D02*
X144780000Y-99060000D01*
X120650000Y-92710000D02*
X120650000Y-96520000D01*
X120650000Y-96520000D02*
X123190000Y-99060000D01*
X156210000Y-101600000D02*
X153670000Y-99060000D01*
X172720000Y-101600000D02*
X156210000Y-101600000D01*
%TO.N,dpad_column_G*%
X100330000Y-111760000D02*
X100330000Y-109220000D01*
X100330000Y-109220000D02*
X102870000Y-106680000D01*
X102870000Y-106680000D02*
X148590000Y-106680000D01*
X148590000Y-106680000D02*
X149860000Y-105410000D01*
X149860000Y-105410000D02*
X149860000Y-85090000D01*
X149860000Y-85090000D02*
X151130000Y-83820000D01*
X151130000Y-83820000D02*
X156210000Y-83820000D01*
%TO.N,dpad_row_3*%
X167640000Y-41910000D02*
X67310000Y-41910000D01*
X170180000Y-59690000D02*
X170180000Y-44450000D01*
X170180000Y-44450000D02*
X167640000Y-41910000D01*
%TO.N,dpad_row_2*%
X144780000Y-121920000D02*
X149860000Y-121920000D01*
X149860000Y-121920000D02*
X153670000Y-118110000D01*
X175260000Y-104140000D02*
X172720000Y-101600000D01*
X153670000Y-118110000D02*
X173990000Y-118110000D01*
X173990000Y-118110000D02*
X175260000Y-116840000D01*
X175260000Y-116840000D02*
X175260000Y-104140000D01*
%TO.N,dpad_row_1*%
X165100000Y-68580000D02*
X165100000Y-66040000D01*
X167640000Y-71120000D02*
X165100000Y-68580000D01*
X175260000Y-91440000D02*
X175260000Y-73660000D01*
X172720000Y-93980000D02*
X175260000Y-91440000D01*
X175260000Y-73660000D02*
X172720000Y-71120000D01*
X172720000Y-71120000D02*
X167640000Y-71120000D01*
%TO.N,dpad_row_3*%
X176530000Y-66040000D02*
X176530000Y-120650000D01*
X170180000Y-59690000D02*
X176530000Y-66040000D01*
X176530000Y-120650000D02*
X175260000Y-121920000D01*
X175260000Y-121920000D02*
X172720000Y-121920000D01*
X60960000Y-51417500D02*
X60960000Y-48260000D01*
X60960000Y-48260000D02*
X67310000Y-41910000D01*
X170180000Y-59690000D02*
X166370000Y-63500000D01*
X166370000Y-63500000D02*
X157480000Y-63500000D01*
%TO.N,dpad_row_1*%
X66040000Y-51417500D02*
X66040000Y-48260000D01*
X66040000Y-48260000D02*
X68580000Y-45720000D01*
X167640000Y-57150000D02*
X165100000Y-59690000D01*
X68580000Y-45720000D02*
X166370000Y-45720000D01*
X166370000Y-45720000D02*
X167640000Y-46990000D01*
X167640000Y-46990000D02*
X167640000Y-57150000D01*
X165100000Y-59690000D02*
X110490000Y-59690000D01*
X110490000Y-59690000D02*
X106680000Y-63500000D01*
%TO.N,dpad_row_2*%
X63500000Y-51417500D02*
X63500000Y-48260000D01*
X63500000Y-48260000D02*
X67910000Y-43850000D01*
X67910000Y-43850000D02*
X167040000Y-43850000D01*
X167040000Y-43850000D02*
X168910000Y-45720000D01*
X168910000Y-45720000D02*
X168910000Y-58420000D01*
X168910000Y-58420000D02*
X166370000Y-60960000D01*
X166370000Y-60960000D02*
X134620000Y-60960000D01*
X134620000Y-60960000D02*
X132080000Y-63500000D01*
X91440000Y-121920000D02*
X92710000Y-120650000D01*
X88900000Y-121920000D02*
X91440000Y-121920000D01*
X92710000Y-95250000D02*
X92710000Y-109220000D01*
X116840000Y-93980000D02*
X93980000Y-93980000D01*
X93980000Y-93980000D02*
X92710000Y-95250000D01*
%TO.N,dpad_row_3*%
X149860000Y-125730000D02*
X153670000Y-121920000D01*
X138430000Y-121920000D02*
X142240000Y-125730000D01*
X116840000Y-121920000D02*
X138430000Y-121920000D01*
X142240000Y-125730000D02*
X149860000Y-125730000D01*
X153670000Y-121920000D02*
X172720000Y-121920000D01*
%TO.N,dpad_column_H*%
X60960000Y-53957500D02*
X60960000Y-114300000D01*
X60960000Y-114300000D02*
X66040000Y-119380000D01*
X66040000Y-119380000D02*
X121920000Y-119380000D01*
X121920000Y-119380000D02*
X121920000Y-114300000D01*
X121920000Y-114300000D02*
X124460000Y-111760000D01*
X124460000Y-111760000D02*
X128270000Y-111760000D01*
%TO.N,dpad_column_G*%
X63500000Y-109220000D02*
X66040000Y-111760000D01*
X63500000Y-53957500D02*
X63500000Y-109220000D01*
X66040000Y-111760000D02*
X72390000Y-111760000D01*
%TO.N,dpad_column_F*%
X66040000Y-53957500D02*
X66040000Y-77470000D01*
X66040000Y-77470000D02*
X72390000Y-83820000D01*
%TO.N,dpad_row_3*%
X157480000Y-67310000D02*
X148590000Y-76200000D01*
X157480000Y-63500000D02*
X157480000Y-67310000D01*
X148590000Y-76200000D02*
X148590000Y-90170000D01*
X148590000Y-90170000D02*
X144780000Y-93980000D01*
%TO.N,dpad_row_2*%
X120650000Y-92710000D02*
X120650000Y-86360000D01*
X116840000Y-93980000D02*
X119380000Y-93980000D01*
X119380000Y-93980000D02*
X120650000Y-92710000D01*
X120650000Y-77470000D02*
X120650000Y-81280000D01*
X132080000Y-66040000D02*
X120650000Y-77470000D01*
X132080000Y-63500000D02*
X132080000Y-66040000D01*
%TO.N,dpad_row_1*%
X88900000Y-93980000D02*
X92710000Y-93980000D01*
X93980000Y-92710000D02*
X93980000Y-86360000D01*
X92710000Y-93980000D02*
X93980000Y-92710000D01*
X93980000Y-78740000D02*
X93980000Y-81280000D01*
X106680000Y-66040000D02*
X93980000Y-78740000D01*
X106680000Y-63500000D02*
X106680000Y-66040000D01*
%TO.N,dpad_column_E*%
X78122500Y-53957500D02*
X78740000Y-53340000D01*
X68580000Y-53957500D02*
X78122500Y-53957500D01*
X78740000Y-53340000D02*
X90170000Y-53340000D01*
%TO.N,dpad_column_H*%
X128270000Y-111760000D02*
X156210000Y-111760000D01*
%TO.N,dpad_column_G*%
X72390000Y-111760000D02*
X100330000Y-111760000D01*
%TO.N,Net-(D19-K)*%
X162560000Y-109220000D02*
X172720000Y-109220000D01*
%TO.N,Net-(D18-K)*%
X134620000Y-109220000D02*
X144780000Y-109220000D01*
%TO.N,Net-(D17-K)*%
X106680000Y-109220000D02*
X116840000Y-109220000D01*
%TO.N,Net-(D16-K)*%
X78740000Y-109220000D02*
X88900000Y-109220000D01*
%TO.N,Net-(D15-K)*%
X162560000Y-81280000D02*
X172720000Y-81280000D01*
%TO.N,Net-(D14-K)*%
X134620000Y-81280000D02*
X144780000Y-81280000D01*
%TO.N,Net-(D13-K)*%
X106680000Y-81280000D02*
X116840000Y-81280000D01*
%TO.N,Net-(D12-K)*%
X78740000Y-81280000D02*
X88900000Y-81280000D01*
%TO.N,Net-(D9-K)*%
X96520000Y-50800000D02*
X106680000Y-50800000D01*
%TO.N,Net-(D10-K)*%
X121920000Y-50800000D02*
X132080000Y-50800000D01*
%TO.N,Net-(D11-K)*%
X147320000Y-50800000D02*
X157480000Y-50800000D01*
%TO.N,dpad_column_F*%
X100330000Y-83820000D02*
X128270000Y-83820000D01*
X72390000Y-83820000D02*
X100330000Y-83820000D01*
%TO.N,dpad_column_E*%
X115570000Y-53340000D02*
X140970000Y-53340000D01*
X90170000Y-53340000D02*
X115570000Y-53340000D01*
%TD*%
M02*
