%TF.GenerationSoftware,KiCad,Pcbnew,7.0.0-da2b9df05c~171~ubuntu22.04.1*%
%TF.CreationDate,2023-03-16T18:49:30-03:00*%
%TF.ProjectId,side_board,73696465-5f62-46f6-9172-642e6b696361,rev?*%
%TF.SameCoordinates,Original*%
%TF.FileFunction,Legend,Top*%
%TF.FilePolarity,Positive*%
%FSLAX46Y46*%
G04 Gerber Fmt 4.6, Leading zero omitted, Abs format (unit mm)*
G04 Created by KiCad (PCBNEW 7.0.0-da2b9df05c~171~ubuntu22.04.1) date 2023-03-16 18:49:30*
%MOMM*%
%LPD*%
G01*
G04 APERTURE LIST*
%ADD10C,0.150000*%
%ADD11C,0.120000*%
G04 APERTURE END LIST*
D10*
%TO.C,D22*%
X156977380Y-129484285D02*
X155977380Y-129484285D01*
X155977380Y-129484285D02*
X155977380Y-129246190D01*
X155977380Y-129246190D02*
X156025000Y-129103333D01*
X156025000Y-129103333D02*
X156120238Y-129008095D01*
X156120238Y-129008095D02*
X156215476Y-128960476D01*
X156215476Y-128960476D02*
X156405952Y-128912857D01*
X156405952Y-128912857D02*
X156548809Y-128912857D01*
X156548809Y-128912857D02*
X156739285Y-128960476D01*
X156739285Y-128960476D02*
X156834523Y-129008095D01*
X156834523Y-129008095D02*
X156929761Y-129103333D01*
X156929761Y-129103333D02*
X156977380Y-129246190D01*
X156977380Y-129246190D02*
X156977380Y-129484285D01*
X156072619Y-128531904D02*
X156025000Y-128484285D01*
X156025000Y-128484285D02*
X155977380Y-128389047D01*
X155977380Y-128389047D02*
X155977380Y-128150952D01*
X155977380Y-128150952D02*
X156025000Y-128055714D01*
X156025000Y-128055714D02*
X156072619Y-128008095D01*
X156072619Y-128008095D02*
X156167857Y-127960476D01*
X156167857Y-127960476D02*
X156263095Y-127960476D01*
X156263095Y-127960476D02*
X156405952Y-128008095D01*
X156405952Y-128008095D02*
X156977380Y-128579523D01*
X156977380Y-128579523D02*
X156977380Y-127960476D01*
X156072619Y-127579523D02*
X156025000Y-127531904D01*
X156025000Y-127531904D02*
X155977380Y-127436666D01*
X155977380Y-127436666D02*
X155977380Y-127198571D01*
X155977380Y-127198571D02*
X156025000Y-127103333D01*
X156025000Y-127103333D02*
X156072619Y-127055714D01*
X156072619Y-127055714D02*
X156167857Y-127008095D01*
X156167857Y-127008095D02*
X156263095Y-127008095D01*
X156263095Y-127008095D02*
X156405952Y-127055714D01*
X156405952Y-127055714D02*
X156977380Y-127627142D01*
X156977380Y-127627142D02*
X156977380Y-127008095D01*
X158877380Y-132134285D02*
X158877380Y-132705713D01*
X158877380Y-132419999D02*
X157877380Y-132419999D01*
X157877380Y-132419999D02*
X158020238Y-132515237D01*
X158020238Y-132515237D02*
X158115476Y-132610475D01*
X158115476Y-132610475D02*
X158163095Y-132705713D01*
%TO.C,D21*%
X128947380Y-129484285D02*
X127947380Y-129484285D01*
X127947380Y-129484285D02*
X127947380Y-129246190D01*
X127947380Y-129246190D02*
X127995000Y-129103333D01*
X127995000Y-129103333D02*
X128090238Y-129008095D01*
X128090238Y-129008095D02*
X128185476Y-128960476D01*
X128185476Y-128960476D02*
X128375952Y-128912857D01*
X128375952Y-128912857D02*
X128518809Y-128912857D01*
X128518809Y-128912857D02*
X128709285Y-128960476D01*
X128709285Y-128960476D02*
X128804523Y-129008095D01*
X128804523Y-129008095D02*
X128899761Y-129103333D01*
X128899761Y-129103333D02*
X128947380Y-129246190D01*
X128947380Y-129246190D02*
X128947380Y-129484285D01*
X128042619Y-128531904D02*
X127995000Y-128484285D01*
X127995000Y-128484285D02*
X127947380Y-128389047D01*
X127947380Y-128389047D02*
X127947380Y-128150952D01*
X127947380Y-128150952D02*
X127995000Y-128055714D01*
X127995000Y-128055714D02*
X128042619Y-128008095D01*
X128042619Y-128008095D02*
X128137857Y-127960476D01*
X128137857Y-127960476D02*
X128233095Y-127960476D01*
X128233095Y-127960476D02*
X128375952Y-128008095D01*
X128375952Y-128008095D02*
X128947380Y-128579523D01*
X128947380Y-128579523D02*
X128947380Y-127960476D01*
X128947380Y-127008095D02*
X128947380Y-127579523D01*
X128947380Y-127293809D02*
X127947380Y-127293809D01*
X127947380Y-127293809D02*
X128090238Y-127389047D01*
X128090238Y-127389047D02*
X128185476Y-127484285D01*
X128185476Y-127484285D02*
X128233095Y-127579523D01*
X130847380Y-132134285D02*
X130847380Y-132705713D01*
X130847380Y-132419999D02*
X129847380Y-132419999D01*
X129847380Y-132419999D02*
X129990238Y-132515237D01*
X129990238Y-132515237D02*
X130085476Y-132610475D01*
X130085476Y-132610475D02*
X130133095Y-132705713D01*
%TO.C,D20*%
X101007380Y-129484285D02*
X100007380Y-129484285D01*
X100007380Y-129484285D02*
X100007380Y-129246190D01*
X100007380Y-129246190D02*
X100055000Y-129103333D01*
X100055000Y-129103333D02*
X100150238Y-129008095D01*
X100150238Y-129008095D02*
X100245476Y-128960476D01*
X100245476Y-128960476D02*
X100435952Y-128912857D01*
X100435952Y-128912857D02*
X100578809Y-128912857D01*
X100578809Y-128912857D02*
X100769285Y-128960476D01*
X100769285Y-128960476D02*
X100864523Y-129008095D01*
X100864523Y-129008095D02*
X100959761Y-129103333D01*
X100959761Y-129103333D02*
X101007380Y-129246190D01*
X101007380Y-129246190D02*
X101007380Y-129484285D01*
X100102619Y-128531904D02*
X100055000Y-128484285D01*
X100055000Y-128484285D02*
X100007380Y-128389047D01*
X100007380Y-128389047D02*
X100007380Y-128150952D01*
X100007380Y-128150952D02*
X100055000Y-128055714D01*
X100055000Y-128055714D02*
X100102619Y-128008095D01*
X100102619Y-128008095D02*
X100197857Y-127960476D01*
X100197857Y-127960476D02*
X100293095Y-127960476D01*
X100293095Y-127960476D02*
X100435952Y-128008095D01*
X100435952Y-128008095D02*
X101007380Y-128579523D01*
X101007380Y-128579523D02*
X101007380Y-127960476D01*
X100007380Y-127341428D02*
X100007380Y-127246190D01*
X100007380Y-127246190D02*
X100055000Y-127150952D01*
X100055000Y-127150952D02*
X100102619Y-127103333D01*
X100102619Y-127103333D02*
X100197857Y-127055714D01*
X100197857Y-127055714D02*
X100388333Y-127008095D01*
X100388333Y-127008095D02*
X100626428Y-127008095D01*
X100626428Y-127008095D02*
X100816904Y-127055714D01*
X100816904Y-127055714D02*
X100912142Y-127103333D01*
X100912142Y-127103333D02*
X100959761Y-127150952D01*
X100959761Y-127150952D02*
X101007380Y-127246190D01*
X101007380Y-127246190D02*
X101007380Y-127341428D01*
X101007380Y-127341428D02*
X100959761Y-127436666D01*
X100959761Y-127436666D02*
X100912142Y-127484285D01*
X100912142Y-127484285D02*
X100816904Y-127531904D01*
X100816904Y-127531904D02*
X100626428Y-127579523D01*
X100626428Y-127579523D02*
X100388333Y-127579523D01*
X100388333Y-127579523D02*
X100197857Y-127531904D01*
X100197857Y-127531904D02*
X100102619Y-127484285D01*
X100102619Y-127484285D02*
X100055000Y-127436666D01*
X100055000Y-127436666D02*
X100007380Y-127341428D01*
X102907380Y-132134285D02*
X102907380Y-132705713D01*
X102907380Y-132419999D02*
X101907380Y-132419999D01*
X101907380Y-132419999D02*
X102050238Y-132515237D01*
X102050238Y-132515237D02*
X102145476Y-132610475D01*
X102145476Y-132610475D02*
X102193095Y-132705713D01*
%TO.C,J1*%
X51687380Y-48075833D02*
X52401666Y-48075833D01*
X52401666Y-48075833D02*
X52544523Y-48123452D01*
X52544523Y-48123452D02*
X52639761Y-48218690D01*
X52639761Y-48218690D02*
X52687380Y-48361547D01*
X52687380Y-48361547D02*
X52687380Y-48456785D01*
X52687380Y-47075833D02*
X52687380Y-47647261D01*
X52687380Y-47361547D02*
X51687380Y-47361547D01*
X51687380Y-47361547D02*
X51830238Y-47456785D01*
X51830238Y-47456785D02*
X51925476Y-47552023D01*
X51925476Y-47552023D02*
X51973095Y-47647261D01*
%TO.C,SW4*%
X74866667Y-78805761D02*
X75009524Y-78853380D01*
X75009524Y-78853380D02*
X75247619Y-78853380D01*
X75247619Y-78853380D02*
X75342857Y-78805761D01*
X75342857Y-78805761D02*
X75390476Y-78758142D01*
X75390476Y-78758142D02*
X75438095Y-78662904D01*
X75438095Y-78662904D02*
X75438095Y-78567666D01*
X75438095Y-78567666D02*
X75390476Y-78472428D01*
X75390476Y-78472428D02*
X75342857Y-78424809D01*
X75342857Y-78424809D02*
X75247619Y-78377190D01*
X75247619Y-78377190D02*
X75057143Y-78329571D01*
X75057143Y-78329571D02*
X74961905Y-78281952D01*
X74961905Y-78281952D02*
X74914286Y-78234333D01*
X74914286Y-78234333D02*
X74866667Y-78139095D01*
X74866667Y-78139095D02*
X74866667Y-78043857D01*
X74866667Y-78043857D02*
X74914286Y-77948619D01*
X74914286Y-77948619D02*
X74961905Y-77901000D01*
X74961905Y-77901000D02*
X75057143Y-77853380D01*
X75057143Y-77853380D02*
X75295238Y-77853380D01*
X75295238Y-77853380D02*
X75438095Y-77901000D01*
X75771429Y-77853380D02*
X76009524Y-78853380D01*
X76009524Y-78853380D02*
X76200000Y-78139095D01*
X76200000Y-78139095D02*
X76390476Y-78853380D01*
X76390476Y-78853380D02*
X76628572Y-77853380D01*
X77438095Y-78186714D02*
X77438095Y-78853380D01*
X77200000Y-77805761D02*
X76961905Y-78520047D01*
X76961905Y-78520047D02*
X77580952Y-78520047D01*
%TO.C,D8*%
X73067380Y-129008094D02*
X72067380Y-129008094D01*
X72067380Y-129008094D02*
X72067380Y-128769999D01*
X72067380Y-128769999D02*
X72115000Y-128627142D01*
X72115000Y-128627142D02*
X72210238Y-128531904D01*
X72210238Y-128531904D02*
X72305476Y-128484285D01*
X72305476Y-128484285D02*
X72495952Y-128436666D01*
X72495952Y-128436666D02*
X72638809Y-128436666D01*
X72638809Y-128436666D02*
X72829285Y-128484285D01*
X72829285Y-128484285D02*
X72924523Y-128531904D01*
X72924523Y-128531904D02*
X73019761Y-128627142D01*
X73019761Y-128627142D02*
X73067380Y-128769999D01*
X73067380Y-128769999D02*
X73067380Y-129008094D01*
X72495952Y-127865237D02*
X72448333Y-127960475D01*
X72448333Y-127960475D02*
X72400714Y-128008094D01*
X72400714Y-128008094D02*
X72305476Y-128055713D01*
X72305476Y-128055713D02*
X72257857Y-128055713D01*
X72257857Y-128055713D02*
X72162619Y-128008094D01*
X72162619Y-128008094D02*
X72115000Y-127960475D01*
X72115000Y-127960475D02*
X72067380Y-127865237D01*
X72067380Y-127865237D02*
X72067380Y-127674761D01*
X72067380Y-127674761D02*
X72115000Y-127579523D01*
X72115000Y-127579523D02*
X72162619Y-127531904D01*
X72162619Y-127531904D02*
X72257857Y-127484285D01*
X72257857Y-127484285D02*
X72305476Y-127484285D01*
X72305476Y-127484285D02*
X72400714Y-127531904D01*
X72400714Y-127531904D02*
X72448333Y-127579523D01*
X72448333Y-127579523D02*
X72495952Y-127674761D01*
X72495952Y-127674761D02*
X72495952Y-127865237D01*
X72495952Y-127865237D02*
X72543571Y-127960475D01*
X72543571Y-127960475D02*
X72591190Y-128008094D01*
X72591190Y-128008094D02*
X72686428Y-128055713D01*
X72686428Y-128055713D02*
X72876904Y-128055713D01*
X72876904Y-128055713D02*
X72972142Y-128008094D01*
X72972142Y-128008094D02*
X73019761Y-127960475D01*
X73019761Y-127960475D02*
X73067380Y-127865237D01*
X73067380Y-127865237D02*
X73067380Y-127674761D01*
X73067380Y-127674761D02*
X73019761Y-127579523D01*
X73019761Y-127579523D02*
X72972142Y-127531904D01*
X72972142Y-127531904D02*
X72876904Y-127484285D01*
X72876904Y-127484285D02*
X72686428Y-127484285D01*
X72686428Y-127484285D02*
X72591190Y-127531904D01*
X72591190Y-127531904D02*
X72543571Y-127579523D01*
X72543571Y-127579523D02*
X72495952Y-127674761D01*
X74967380Y-132134285D02*
X74967380Y-132705713D01*
X74967380Y-132419999D02*
X73967380Y-132419999D01*
X73967380Y-132419999D02*
X74110238Y-132515237D01*
X74110238Y-132515237D02*
X74205476Y-132610475D01*
X74205476Y-132610475D02*
X74253095Y-132705713D01*
%TO.C,SW6*%
X130746667Y-78805761D02*
X130889524Y-78853380D01*
X130889524Y-78853380D02*
X131127619Y-78853380D01*
X131127619Y-78853380D02*
X131222857Y-78805761D01*
X131222857Y-78805761D02*
X131270476Y-78758142D01*
X131270476Y-78758142D02*
X131318095Y-78662904D01*
X131318095Y-78662904D02*
X131318095Y-78567666D01*
X131318095Y-78567666D02*
X131270476Y-78472428D01*
X131270476Y-78472428D02*
X131222857Y-78424809D01*
X131222857Y-78424809D02*
X131127619Y-78377190D01*
X131127619Y-78377190D02*
X130937143Y-78329571D01*
X130937143Y-78329571D02*
X130841905Y-78281952D01*
X130841905Y-78281952D02*
X130794286Y-78234333D01*
X130794286Y-78234333D02*
X130746667Y-78139095D01*
X130746667Y-78139095D02*
X130746667Y-78043857D01*
X130746667Y-78043857D02*
X130794286Y-77948619D01*
X130794286Y-77948619D02*
X130841905Y-77901000D01*
X130841905Y-77901000D02*
X130937143Y-77853380D01*
X130937143Y-77853380D02*
X131175238Y-77853380D01*
X131175238Y-77853380D02*
X131318095Y-77901000D01*
X131651429Y-77853380D02*
X131889524Y-78853380D01*
X131889524Y-78853380D02*
X132080000Y-78139095D01*
X132080000Y-78139095D02*
X132270476Y-78853380D01*
X132270476Y-78853380D02*
X132508572Y-77853380D01*
X133318095Y-77853380D02*
X133127619Y-77853380D01*
X133127619Y-77853380D02*
X133032381Y-77901000D01*
X133032381Y-77901000D02*
X132984762Y-77948619D01*
X132984762Y-77948619D02*
X132889524Y-78091476D01*
X132889524Y-78091476D02*
X132841905Y-78281952D01*
X132841905Y-78281952D02*
X132841905Y-78662904D01*
X132841905Y-78662904D02*
X132889524Y-78758142D01*
X132889524Y-78758142D02*
X132937143Y-78805761D01*
X132937143Y-78805761D02*
X133032381Y-78853380D01*
X133032381Y-78853380D02*
X133222857Y-78853380D01*
X133222857Y-78853380D02*
X133318095Y-78805761D01*
X133318095Y-78805761D02*
X133365714Y-78758142D01*
X133365714Y-78758142D02*
X133413333Y-78662904D01*
X133413333Y-78662904D02*
X133413333Y-78424809D01*
X133413333Y-78424809D02*
X133365714Y-78329571D01*
X133365714Y-78329571D02*
X133318095Y-78281952D01*
X133318095Y-78281952D02*
X133222857Y-78234333D01*
X133222857Y-78234333D02*
X133032381Y-78234333D01*
X133032381Y-78234333D02*
X132937143Y-78281952D01*
X132937143Y-78281952D02*
X132889524Y-78329571D01*
X132889524Y-78329571D02*
X132841905Y-78424809D01*
%TO.C,SW1*%
X92646667Y-48325761D02*
X92789524Y-48373380D01*
X92789524Y-48373380D02*
X93027619Y-48373380D01*
X93027619Y-48373380D02*
X93122857Y-48325761D01*
X93122857Y-48325761D02*
X93170476Y-48278142D01*
X93170476Y-48278142D02*
X93218095Y-48182904D01*
X93218095Y-48182904D02*
X93218095Y-48087666D01*
X93218095Y-48087666D02*
X93170476Y-47992428D01*
X93170476Y-47992428D02*
X93122857Y-47944809D01*
X93122857Y-47944809D02*
X93027619Y-47897190D01*
X93027619Y-47897190D02*
X92837143Y-47849571D01*
X92837143Y-47849571D02*
X92741905Y-47801952D01*
X92741905Y-47801952D02*
X92694286Y-47754333D01*
X92694286Y-47754333D02*
X92646667Y-47659095D01*
X92646667Y-47659095D02*
X92646667Y-47563857D01*
X92646667Y-47563857D02*
X92694286Y-47468619D01*
X92694286Y-47468619D02*
X92741905Y-47421000D01*
X92741905Y-47421000D02*
X92837143Y-47373380D01*
X92837143Y-47373380D02*
X93075238Y-47373380D01*
X93075238Y-47373380D02*
X93218095Y-47421000D01*
X93551429Y-47373380D02*
X93789524Y-48373380D01*
X93789524Y-48373380D02*
X93980000Y-47659095D01*
X93980000Y-47659095D02*
X94170476Y-48373380D01*
X94170476Y-48373380D02*
X94408572Y-47373380D01*
X95313333Y-48373380D02*
X94741905Y-48373380D01*
X95027619Y-48373380D02*
X95027619Y-47373380D01*
X95027619Y-47373380D02*
X94932381Y-47516238D01*
X94932381Y-47516238D02*
X94837143Y-47611476D01*
X94837143Y-47611476D02*
X94741905Y-47659095D01*
%TO.C,SW8*%
X74866667Y-106745761D02*
X75009524Y-106793380D01*
X75009524Y-106793380D02*
X75247619Y-106793380D01*
X75247619Y-106793380D02*
X75342857Y-106745761D01*
X75342857Y-106745761D02*
X75390476Y-106698142D01*
X75390476Y-106698142D02*
X75438095Y-106602904D01*
X75438095Y-106602904D02*
X75438095Y-106507666D01*
X75438095Y-106507666D02*
X75390476Y-106412428D01*
X75390476Y-106412428D02*
X75342857Y-106364809D01*
X75342857Y-106364809D02*
X75247619Y-106317190D01*
X75247619Y-106317190D02*
X75057143Y-106269571D01*
X75057143Y-106269571D02*
X74961905Y-106221952D01*
X74961905Y-106221952D02*
X74914286Y-106174333D01*
X74914286Y-106174333D02*
X74866667Y-106079095D01*
X74866667Y-106079095D02*
X74866667Y-105983857D01*
X74866667Y-105983857D02*
X74914286Y-105888619D01*
X74914286Y-105888619D02*
X74961905Y-105841000D01*
X74961905Y-105841000D02*
X75057143Y-105793380D01*
X75057143Y-105793380D02*
X75295238Y-105793380D01*
X75295238Y-105793380D02*
X75438095Y-105841000D01*
X75771429Y-105793380D02*
X76009524Y-106793380D01*
X76009524Y-106793380D02*
X76200000Y-106079095D01*
X76200000Y-106079095D02*
X76390476Y-106793380D01*
X76390476Y-106793380D02*
X76628572Y-105793380D01*
X77152381Y-106221952D02*
X77057143Y-106174333D01*
X77057143Y-106174333D02*
X77009524Y-106126714D01*
X77009524Y-106126714D02*
X76961905Y-106031476D01*
X76961905Y-106031476D02*
X76961905Y-105983857D01*
X76961905Y-105983857D02*
X77009524Y-105888619D01*
X77009524Y-105888619D02*
X77057143Y-105841000D01*
X77057143Y-105841000D02*
X77152381Y-105793380D01*
X77152381Y-105793380D02*
X77342857Y-105793380D01*
X77342857Y-105793380D02*
X77438095Y-105841000D01*
X77438095Y-105841000D02*
X77485714Y-105888619D01*
X77485714Y-105888619D02*
X77533333Y-105983857D01*
X77533333Y-105983857D02*
X77533333Y-106031476D01*
X77533333Y-106031476D02*
X77485714Y-106126714D01*
X77485714Y-106126714D02*
X77438095Y-106174333D01*
X77438095Y-106174333D02*
X77342857Y-106221952D01*
X77342857Y-106221952D02*
X77152381Y-106221952D01*
X77152381Y-106221952D02*
X77057143Y-106269571D01*
X77057143Y-106269571D02*
X77009524Y-106317190D01*
X77009524Y-106317190D02*
X76961905Y-106412428D01*
X76961905Y-106412428D02*
X76961905Y-106602904D01*
X76961905Y-106602904D02*
X77009524Y-106698142D01*
X77009524Y-106698142D02*
X77057143Y-106745761D01*
X77057143Y-106745761D02*
X77152381Y-106793380D01*
X77152381Y-106793380D02*
X77342857Y-106793380D01*
X77342857Y-106793380D02*
X77438095Y-106745761D01*
X77438095Y-106745761D02*
X77485714Y-106698142D01*
X77485714Y-106698142D02*
X77533333Y-106602904D01*
X77533333Y-106602904D02*
X77533333Y-106412428D01*
X77533333Y-106412428D02*
X77485714Y-106317190D01*
X77485714Y-106317190D02*
X77438095Y-106269571D01*
X77438095Y-106269571D02*
X77342857Y-106221952D01*
%TO.C,D9*%
X110017380Y-57888094D02*
X109017380Y-57888094D01*
X109017380Y-57888094D02*
X109017380Y-57649999D01*
X109017380Y-57649999D02*
X109065000Y-57507142D01*
X109065000Y-57507142D02*
X109160238Y-57411904D01*
X109160238Y-57411904D02*
X109255476Y-57364285D01*
X109255476Y-57364285D02*
X109445952Y-57316666D01*
X109445952Y-57316666D02*
X109588809Y-57316666D01*
X109588809Y-57316666D02*
X109779285Y-57364285D01*
X109779285Y-57364285D02*
X109874523Y-57411904D01*
X109874523Y-57411904D02*
X109969761Y-57507142D01*
X109969761Y-57507142D02*
X110017380Y-57649999D01*
X110017380Y-57649999D02*
X110017380Y-57888094D01*
X110017380Y-56840475D02*
X110017380Y-56649999D01*
X110017380Y-56649999D02*
X109969761Y-56554761D01*
X109969761Y-56554761D02*
X109922142Y-56507142D01*
X109922142Y-56507142D02*
X109779285Y-56411904D01*
X109779285Y-56411904D02*
X109588809Y-56364285D01*
X109588809Y-56364285D02*
X109207857Y-56364285D01*
X109207857Y-56364285D02*
X109112619Y-56411904D01*
X109112619Y-56411904D02*
X109065000Y-56459523D01*
X109065000Y-56459523D02*
X109017380Y-56554761D01*
X109017380Y-56554761D02*
X109017380Y-56745237D01*
X109017380Y-56745237D02*
X109065000Y-56840475D01*
X109065000Y-56840475D02*
X109112619Y-56888094D01*
X109112619Y-56888094D02*
X109207857Y-56935713D01*
X109207857Y-56935713D02*
X109445952Y-56935713D01*
X109445952Y-56935713D02*
X109541190Y-56888094D01*
X109541190Y-56888094D02*
X109588809Y-56840475D01*
X109588809Y-56840475D02*
X109636428Y-56745237D01*
X109636428Y-56745237D02*
X109636428Y-56554761D01*
X109636428Y-56554761D02*
X109588809Y-56459523D01*
X109588809Y-56459523D02*
X109541190Y-56411904D01*
X109541190Y-56411904D02*
X109445952Y-56364285D01*
X109447380Y-51061904D02*
X108447380Y-51061904D01*
X109447380Y-50490476D02*
X108875952Y-50919047D01*
X108447380Y-50490476D02*
X109018809Y-51061904D01*
%TO.C,SW11*%
X158210476Y-106745761D02*
X158353333Y-106793380D01*
X158353333Y-106793380D02*
X158591428Y-106793380D01*
X158591428Y-106793380D02*
X158686666Y-106745761D01*
X158686666Y-106745761D02*
X158734285Y-106698142D01*
X158734285Y-106698142D02*
X158781904Y-106602904D01*
X158781904Y-106602904D02*
X158781904Y-106507666D01*
X158781904Y-106507666D02*
X158734285Y-106412428D01*
X158734285Y-106412428D02*
X158686666Y-106364809D01*
X158686666Y-106364809D02*
X158591428Y-106317190D01*
X158591428Y-106317190D02*
X158400952Y-106269571D01*
X158400952Y-106269571D02*
X158305714Y-106221952D01*
X158305714Y-106221952D02*
X158258095Y-106174333D01*
X158258095Y-106174333D02*
X158210476Y-106079095D01*
X158210476Y-106079095D02*
X158210476Y-105983857D01*
X158210476Y-105983857D02*
X158258095Y-105888619D01*
X158258095Y-105888619D02*
X158305714Y-105841000D01*
X158305714Y-105841000D02*
X158400952Y-105793380D01*
X158400952Y-105793380D02*
X158639047Y-105793380D01*
X158639047Y-105793380D02*
X158781904Y-105841000D01*
X159115238Y-105793380D02*
X159353333Y-106793380D01*
X159353333Y-106793380D02*
X159543809Y-106079095D01*
X159543809Y-106079095D02*
X159734285Y-106793380D01*
X159734285Y-106793380D02*
X159972381Y-105793380D01*
X160877142Y-106793380D02*
X160305714Y-106793380D01*
X160591428Y-106793380D02*
X160591428Y-105793380D01*
X160591428Y-105793380D02*
X160496190Y-105936238D01*
X160496190Y-105936238D02*
X160400952Y-106031476D01*
X160400952Y-106031476D02*
X160305714Y-106079095D01*
X161829523Y-106793380D02*
X161258095Y-106793380D01*
X161543809Y-106793380D02*
X161543809Y-105793380D01*
X161543809Y-105793380D02*
X161448571Y-105936238D01*
X161448571Y-105936238D02*
X161353333Y-106031476D01*
X161353333Y-106031476D02*
X161258095Y-106079095D01*
%TO.C,D7*%
X156887380Y-101068094D02*
X155887380Y-101068094D01*
X155887380Y-101068094D02*
X155887380Y-100829999D01*
X155887380Y-100829999D02*
X155935000Y-100687142D01*
X155935000Y-100687142D02*
X156030238Y-100591904D01*
X156030238Y-100591904D02*
X156125476Y-100544285D01*
X156125476Y-100544285D02*
X156315952Y-100496666D01*
X156315952Y-100496666D02*
X156458809Y-100496666D01*
X156458809Y-100496666D02*
X156649285Y-100544285D01*
X156649285Y-100544285D02*
X156744523Y-100591904D01*
X156744523Y-100591904D02*
X156839761Y-100687142D01*
X156839761Y-100687142D02*
X156887380Y-100829999D01*
X156887380Y-100829999D02*
X156887380Y-101068094D01*
X155887380Y-100163332D02*
X155887380Y-99496666D01*
X155887380Y-99496666D02*
X156887380Y-99925237D01*
X158787380Y-104194285D02*
X158787380Y-104765713D01*
X158787380Y-104479999D02*
X157787380Y-104479999D01*
X157787380Y-104479999D02*
X157930238Y-104575237D01*
X157930238Y-104575237D02*
X158025476Y-104670475D01*
X158025476Y-104670475D02*
X158073095Y-104765713D01*
%TO.C,SW10*%
X130270476Y-106745761D02*
X130413333Y-106793380D01*
X130413333Y-106793380D02*
X130651428Y-106793380D01*
X130651428Y-106793380D02*
X130746666Y-106745761D01*
X130746666Y-106745761D02*
X130794285Y-106698142D01*
X130794285Y-106698142D02*
X130841904Y-106602904D01*
X130841904Y-106602904D02*
X130841904Y-106507666D01*
X130841904Y-106507666D02*
X130794285Y-106412428D01*
X130794285Y-106412428D02*
X130746666Y-106364809D01*
X130746666Y-106364809D02*
X130651428Y-106317190D01*
X130651428Y-106317190D02*
X130460952Y-106269571D01*
X130460952Y-106269571D02*
X130365714Y-106221952D01*
X130365714Y-106221952D02*
X130318095Y-106174333D01*
X130318095Y-106174333D02*
X130270476Y-106079095D01*
X130270476Y-106079095D02*
X130270476Y-105983857D01*
X130270476Y-105983857D02*
X130318095Y-105888619D01*
X130318095Y-105888619D02*
X130365714Y-105841000D01*
X130365714Y-105841000D02*
X130460952Y-105793380D01*
X130460952Y-105793380D02*
X130699047Y-105793380D01*
X130699047Y-105793380D02*
X130841904Y-105841000D01*
X131175238Y-105793380D02*
X131413333Y-106793380D01*
X131413333Y-106793380D02*
X131603809Y-106079095D01*
X131603809Y-106079095D02*
X131794285Y-106793380D01*
X131794285Y-106793380D02*
X132032381Y-105793380D01*
X132937142Y-106793380D02*
X132365714Y-106793380D01*
X132651428Y-106793380D02*
X132651428Y-105793380D01*
X132651428Y-105793380D02*
X132556190Y-105936238D01*
X132556190Y-105936238D02*
X132460952Y-106031476D01*
X132460952Y-106031476D02*
X132365714Y-106079095D01*
X133556190Y-105793380D02*
X133651428Y-105793380D01*
X133651428Y-105793380D02*
X133746666Y-105841000D01*
X133746666Y-105841000D02*
X133794285Y-105888619D01*
X133794285Y-105888619D02*
X133841904Y-105983857D01*
X133841904Y-105983857D02*
X133889523Y-106174333D01*
X133889523Y-106174333D02*
X133889523Y-106412428D01*
X133889523Y-106412428D02*
X133841904Y-106602904D01*
X133841904Y-106602904D02*
X133794285Y-106698142D01*
X133794285Y-106698142D02*
X133746666Y-106745761D01*
X133746666Y-106745761D02*
X133651428Y-106793380D01*
X133651428Y-106793380D02*
X133556190Y-106793380D01*
X133556190Y-106793380D02*
X133460952Y-106745761D01*
X133460952Y-106745761D02*
X133413333Y-106698142D01*
X133413333Y-106698142D02*
X133365714Y-106602904D01*
X133365714Y-106602904D02*
X133318095Y-106412428D01*
X133318095Y-106412428D02*
X133318095Y-106174333D01*
X133318095Y-106174333D02*
X133365714Y-105983857D01*
X133365714Y-105983857D02*
X133413333Y-105888619D01*
X133413333Y-105888619D02*
X133460952Y-105841000D01*
X133460952Y-105841000D02*
X133556190Y-105793380D01*
%TO.C,D4*%
X73067380Y-101068094D02*
X72067380Y-101068094D01*
X72067380Y-101068094D02*
X72067380Y-100829999D01*
X72067380Y-100829999D02*
X72115000Y-100687142D01*
X72115000Y-100687142D02*
X72210238Y-100591904D01*
X72210238Y-100591904D02*
X72305476Y-100544285D01*
X72305476Y-100544285D02*
X72495952Y-100496666D01*
X72495952Y-100496666D02*
X72638809Y-100496666D01*
X72638809Y-100496666D02*
X72829285Y-100544285D01*
X72829285Y-100544285D02*
X72924523Y-100591904D01*
X72924523Y-100591904D02*
X73019761Y-100687142D01*
X73019761Y-100687142D02*
X73067380Y-100829999D01*
X73067380Y-100829999D02*
X73067380Y-101068094D01*
X72400714Y-99639523D02*
X73067380Y-99639523D01*
X72019761Y-99877618D02*
X72734047Y-100115713D01*
X72734047Y-100115713D02*
X72734047Y-99496666D01*
X74967380Y-104194285D02*
X74967380Y-104765713D01*
X74967380Y-104479999D02*
X73967380Y-104479999D01*
X73967380Y-104479999D02*
X74110238Y-104575237D01*
X74110238Y-104575237D02*
X74205476Y-104670475D01*
X74205476Y-104670475D02*
X74253095Y-104765713D01*
%TO.C,D17*%
X120177380Y-116784285D02*
X119177380Y-116784285D01*
X119177380Y-116784285D02*
X119177380Y-116546190D01*
X119177380Y-116546190D02*
X119225000Y-116403333D01*
X119225000Y-116403333D02*
X119320238Y-116308095D01*
X119320238Y-116308095D02*
X119415476Y-116260476D01*
X119415476Y-116260476D02*
X119605952Y-116212857D01*
X119605952Y-116212857D02*
X119748809Y-116212857D01*
X119748809Y-116212857D02*
X119939285Y-116260476D01*
X119939285Y-116260476D02*
X120034523Y-116308095D01*
X120034523Y-116308095D02*
X120129761Y-116403333D01*
X120129761Y-116403333D02*
X120177380Y-116546190D01*
X120177380Y-116546190D02*
X120177380Y-116784285D01*
X120177380Y-115260476D02*
X120177380Y-115831904D01*
X120177380Y-115546190D02*
X119177380Y-115546190D01*
X119177380Y-115546190D02*
X119320238Y-115641428D01*
X119320238Y-115641428D02*
X119415476Y-115736666D01*
X119415476Y-115736666D02*
X119463095Y-115831904D01*
X119177380Y-114927142D02*
X119177380Y-114260476D01*
X119177380Y-114260476D02*
X120177380Y-114689047D01*
X119607380Y-109481904D02*
X118607380Y-109481904D01*
X119607380Y-108910476D02*
X119035952Y-109339047D01*
X118607380Y-108910476D02*
X119178809Y-109481904D01*
%TO.C,SW3*%
X143446667Y-48325761D02*
X143589524Y-48373380D01*
X143589524Y-48373380D02*
X143827619Y-48373380D01*
X143827619Y-48373380D02*
X143922857Y-48325761D01*
X143922857Y-48325761D02*
X143970476Y-48278142D01*
X143970476Y-48278142D02*
X144018095Y-48182904D01*
X144018095Y-48182904D02*
X144018095Y-48087666D01*
X144018095Y-48087666D02*
X143970476Y-47992428D01*
X143970476Y-47992428D02*
X143922857Y-47944809D01*
X143922857Y-47944809D02*
X143827619Y-47897190D01*
X143827619Y-47897190D02*
X143637143Y-47849571D01*
X143637143Y-47849571D02*
X143541905Y-47801952D01*
X143541905Y-47801952D02*
X143494286Y-47754333D01*
X143494286Y-47754333D02*
X143446667Y-47659095D01*
X143446667Y-47659095D02*
X143446667Y-47563857D01*
X143446667Y-47563857D02*
X143494286Y-47468619D01*
X143494286Y-47468619D02*
X143541905Y-47421000D01*
X143541905Y-47421000D02*
X143637143Y-47373380D01*
X143637143Y-47373380D02*
X143875238Y-47373380D01*
X143875238Y-47373380D02*
X144018095Y-47421000D01*
X144351429Y-47373380D02*
X144589524Y-48373380D01*
X144589524Y-48373380D02*
X144780000Y-47659095D01*
X144780000Y-47659095D02*
X144970476Y-48373380D01*
X144970476Y-48373380D02*
X145208572Y-47373380D01*
X145494286Y-47373380D02*
X146113333Y-47373380D01*
X146113333Y-47373380D02*
X145780000Y-47754333D01*
X145780000Y-47754333D02*
X145922857Y-47754333D01*
X145922857Y-47754333D02*
X146018095Y-47801952D01*
X146018095Y-47801952D02*
X146065714Y-47849571D01*
X146065714Y-47849571D02*
X146113333Y-47944809D01*
X146113333Y-47944809D02*
X146113333Y-48182904D01*
X146113333Y-48182904D02*
X146065714Y-48278142D01*
X146065714Y-48278142D02*
X146018095Y-48325761D01*
X146018095Y-48325761D02*
X145922857Y-48373380D01*
X145922857Y-48373380D02*
X145637143Y-48373380D01*
X145637143Y-48373380D02*
X145541905Y-48325761D01*
X145541905Y-48325761D02*
X145494286Y-48278142D01*
%TO.C,D15*%
X176057380Y-88844285D02*
X175057380Y-88844285D01*
X175057380Y-88844285D02*
X175057380Y-88606190D01*
X175057380Y-88606190D02*
X175105000Y-88463333D01*
X175105000Y-88463333D02*
X175200238Y-88368095D01*
X175200238Y-88368095D02*
X175295476Y-88320476D01*
X175295476Y-88320476D02*
X175485952Y-88272857D01*
X175485952Y-88272857D02*
X175628809Y-88272857D01*
X175628809Y-88272857D02*
X175819285Y-88320476D01*
X175819285Y-88320476D02*
X175914523Y-88368095D01*
X175914523Y-88368095D02*
X176009761Y-88463333D01*
X176009761Y-88463333D02*
X176057380Y-88606190D01*
X176057380Y-88606190D02*
X176057380Y-88844285D01*
X176057380Y-87320476D02*
X176057380Y-87891904D01*
X176057380Y-87606190D02*
X175057380Y-87606190D01*
X175057380Y-87606190D02*
X175200238Y-87701428D01*
X175200238Y-87701428D02*
X175295476Y-87796666D01*
X175295476Y-87796666D02*
X175343095Y-87891904D01*
X175057380Y-86415714D02*
X175057380Y-86891904D01*
X175057380Y-86891904D02*
X175533571Y-86939523D01*
X175533571Y-86939523D02*
X175485952Y-86891904D01*
X175485952Y-86891904D02*
X175438333Y-86796666D01*
X175438333Y-86796666D02*
X175438333Y-86558571D01*
X175438333Y-86558571D02*
X175485952Y-86463333D01*
X175485952Y-86463333D02*
X175533571Y-86415714D01*
X175533571Y-86415714D02*
X175628809Y-86368095D01*
X175628809Y-86368095D02*
X175866904Y-86368095D01*
X175866904Y-86368095D02*
X175962142Y-86415714D01*
X175962142Y-86415714D02*
X176009761Y-86463333D01*
X176009761Y-86463333D02*
X176057380Y-86558571D01*
X176057380Y-86558571D02*
X176057380Y-86796666D01*
X176057380Y-86796666D02*
X176009761Y-86891904D01*
X176009761Y-86891904D02*
X175962142Y-86939523D01*
X175487380Y-81541904D02*
X174487380Y-81541904D01*
X175487380Y-80970476D02*
X174915952Y-81399047D01*
X174487380Y-80970476D02*
X175058809Y-81541904D01*
%TO.C,D10*%
X135417380Y-58364285D02*
X134417380Y-58364285D01*
X134417380Y-58364285D02*
X134417380Y-58126190D01*
X134417380Y-58126190D02*
X134465000Y-57983333D01*
X134465000Y-57983333D02*
X134560238Y-57888095D01*
X134560238Y-57888095D02*
X134655476Y-57840476D01*
X134655476Y-57840476D02*
X134845952Y-57792857D01*
X134845952Y-57792857D02*
X134988809Y-57792857D01*
X134988809Y-57792857D02*
X135179285Y-57840476D01*
X135179285Y-57840476D02*
X135274523Y-57888095D01*
X135274523Y-57888095D02*
X135369761Y-57983333D01*
X135369761Y-57983333D02*
X135417380Y-58126190D01*
X135417380Y-58126190D02*
X135417380Y-58364285D01*
X135417380Y-56840476D02*
X135417380Y-57411904D01*
X135417380Y-57126190D02*
X134417380Y-57126190D01*
X134417380Y-57126190D02*
X134560238Y-57221428D01*
X134560238Y-57221428D02*
X134655476Y-57316666D01*
X134655476Y-57316666D02*
X134703095Y-57411904D01*
X134417380Y-56221428D02*
X134417380Y-56126190D01*
X134417380Y-56126190D02*
X134465000Y-56030952D01*
X134465000Y-56030952D02*
X134512619Y-55983333D01*
X134512619Y-55983333D02*
X134607857Y-55935714D01*
X134607857Y-55935714D02*
X134798333Y-55888095D01*
X134798333Y-55888095D02*
X135036428Y-55888095D01*
X135036428Y-55888095D02*
X135226904Y-55935714D01*
X135226904Y-55935714D02*
X135322142Y-55983333D01*
X135322142Y-55983333D02*
X135369761Y-56030952D01*
X135369761Y-56030952D02*
X135417380Y-56126190D01*
X135417380Y-56126190D02*
X135417380Y-56221428D01*
X135417380Y-56221428D02*
X135369761Y-56316666D01*
X135369761Y-56316666D02*
X135322142Y-56364285D01*
X135322142Y-56364285D02*
X135226904Y-56411904D01*
X135226904Y-56411904D02*
X135036428Y-56459523D01*
X135036428Y-56459523D02*
X134798333Y-56459523D01*
X134798333Y-56459523D02*
X134607857Y-56411904D01*
X134607857Y-56411904D02*
X134512619Y-56364285D01*
X134512619Y-56364285D02*
X134465000Y-56316666D01*
X134465000Y-56316666D02*
X134417380Y-56221428D01*
X134847380Y-51061904D02*
X133847380Y-51061904D01*
X134847380Y-50490476D02*
X134275952Y-50919047D01*
X133847380Y-50490476D02*
X134418809Y-51061904D01*
%TO.C,D3*%
X141737380Y-70588094D02*
X140737380Y-70588094D01*
X140737380Y-70588094D02*
X140737380Y-70349999D01*
X140737380Y-70349999D02*
X140785000Y-70207142D01*
X140785000Y-70207142D02*
X140880238Y-70111904D01*
X140880238Y-70111904D02*
X140975476Y-70064285D01*
X140975476Y-70064285D02*
X141165952Y-70016666D01*
X141165952Y-70016666D02*
X141308809Y-70016666D01*
X141308809Y-70016666D02*
X141499285Y-70064285D01*
X141499285Y-70064285D02*
X141594523Y-70111904D01*
X141594523Y-70111904D02*
X141689761Y-70207142D01*
X141689761Y-70207142D02*
X141737380Y-70349999D01*
X141737380Y-70349999D02*
X141737380Y-70588094D01*
X140737380Y-69683332D02*
X140737380Y-69064285D01*
X140737380Y-69064285D02*
X141118333Y-69397618D01*
X141118333Y-69397618D02*
X141118333Y-69254761D01*
X141118333Y-69254761D02*
X141165952Y-69159523D01*
X141165952Y-69159523D02*
X141213571Y-69111904D01*
X141213571Y-69111904D02*
X141308809Y-69064285D01*
X141308809Y-69064285D02*
X141546904Y-69064285D01*
X141546904Y-69064285D02*
X141642142Y-69111904D01*
X141642142Y-69111904D02*
X141689761Y-69159523D01*
X141689761Y-69159523D02*
X141737380Y-69254761D01*
X141737380Y-69254761D02*
X141737380Y-69540475D01*
X141737380Y-69540475D02*
X141689761Y-69635713D01*
X141689761Y-69635713D02*
X141642142Y-69683332D01*
X143637380Y-73714285D02*
X143637380Y-74285713D01*
X143637380Y-73999999D02*
X142637380Y-73999999D01*
X142637380Y-73999999D02*
X142780238Y-74095237D01*
X142780238Y-74095237D02*
X142875476Y-74190475D01*
X142875476Y-74190475D02*
X142923095Y-74285713D01*
%TO.C,D12*%
X92237380Y-88844285D02*
X91237380Y-88844285D01*
X91237380Y-88844285D02*
X91237380Y-88606190D01*
X91237380Y-88606190D02*
X91285000Y-88463333D01*
X91285000Y-88463333D02*
X91380238Y-88368095D01*
X91380238Y-88368095D02*
X91475476Y-88320476D01*
X91475476Y-88320476D02*
X91665952Y-88272857D01*
X91665952Y-88272857D02*
X91808809Y-88272857D01*
X91808809Y-88272857D02*
X91999285Y-88320476D01*
X91999285Y-88320476D02*
X92094523Y-88368095D01*
X92094523Y-88368095D02*
X92189761Y-88463333D01*
X92189761Y-88463333D02*
X92237380Y-88606190D01*
X92237380Y-88606190D02*
X92237380Y-88844285D01*
X92237380Y-87320476D02*
X92237380Y-87891904D01*
X92237380Y-87606190D02*
X91237380Y-87606190D01*
X91237380Y-87606190D02*
X91380238Y-87701428D01*
X91380238Y-87701428D02*
X91475476Y-87796666D01*
X91475476Y-87796666D02*
X91523095Y-87891904D01*
X91332619Y-86939523D02*
X91285000Y-86891904D01*
X91285000Y-86891904D02*
X91237380Y-86796666D01*
X91237380Y-86796666D02*
X91237380Y-86558571D01*
X91237380Y-86558571D02*
X91285000Y-86463333D01*
X91285000Y-86463333D02*
X91332619Y-86415714D01*
X91332619Y-86415714D02*
X91427857Y-86368095D01*
X91427857Y-86368095D02*
X91523095Y-86368095D01*
X91523095Y-86368095D02*
X91665952Y-86415714D01*
X91665952Y-86415714D02*
X92237380Y-86987142D01*
X92237380Y-86987142D02*
X92237380Y-86368095D01*
X91667380Y-81541904D02*
X90667380Y-81541904D01*
X91667380Y-80970476D02*
X91095952Y-81399047D01*
X90667380Y-80970476D02*
X91238809Y-81541904D01*
%TO.C,D2*%
X116247380Y-70588094D02*
X115247380Y-70588094D01*
X115247380Y-70588094D02*
X115247380Y-70349999D01*
X115247380Y-70349999D02*
X115295000Y-70207142D01*
X115295000Y-70207142D02*
X115390238Y-70111904D01*
X115390238Y-70111904D02*
X115485476Y-70064285D01*
X115485476Y-70064285D02*
X115675952Y-70016666D01*
X115675952Y-70016666D02*
X115818809Y-70016666D01*
X115818809Y-70016666D02*
X116009285Y-70064285D01*
X116009285Y-70064285D02*
X116104523Y-70111904D01*
X116104523Y-70111904D02*
X116199761Y-70207142D01*
X116199761Y-70207142D02*
X116247380Y-70349999D01*
X116247380Y-70349999D02*
X116247380Y-70588094D01*
X115342619Y-69635713D02*
X115295000Y-69588094D01*
X115295000Y-69588094D02*
X115247380Y-69492856D01*
X115247380Y-69492856D02*
X115247380Y-69254761D01*
X115247380Y-69254761D02*
X115295000Y-69159523D01*
X115295000Y-69159523D02*
X115342619Y-69111904D01*
X115342619Y-69111904D02*
X115437857Y-69064285D01*
X115437857Y-69064285D02*
X115533095Y-69064285D01*
X115533095Y-69064285D02*
X115675952Y-69111904D01*
X115675952Y-69111904D02*
X116247380Y-69683332D01*
X116247380Y-69683332D02*
X116247380Y-69064285D01*
X118147380Y-73714285D02*
X118147380Y-74285713D01*
X118147380Y-73999999D02*
X117147380Y-73999999D01*
X117147380Y-73999999D02*
X117290238Y-74095237D01*
X117290238Y-74095237D02*
X117385476Y-74190475D01*
X117385476Y-74190475D02*
X117433095Y-74285713D01*
%TO.C,D13*%
X120177380Y-88844285D02*
X119177380Y-88844285D01*
X119177380Y-88844285D02*
X119177380Y-88606190D01*
X119177380Y-88606190D02*
X119225000Y-88463333D01*
X119225000Y-88463333D02*
X119320238Y-88368095D01*
X119320238Y-88368095D02*
X119415476Y-88320476D01*
X119415476Y-88320476D02*
X119605952Y-88272857D01*
X119605952Y-88272857D02*
X119748809Y-88272857D01*
X119748809Y-88272857D02*
X119939285Y-88320476D01*
X119939285Y-88320476D02*
X120034523Y-88368095D01*
X120034523Y-88368095D02*
X120129761Y-88463333D01*
X120129761Y-88463333D02*
X120177380Y-88606190D01*
X120177380Y-88606190D02*
X120177380Y-88844285D01*
X120177380Y-87320476D02*
X120177380Y-87891904D01*
X120177380Y-87606190D02*
X119177380Y-87606190D01*
X119177380Y-87606190D02*
X119320238Y-87701428D01*
X119320238Y-87701428D02*
X119415476Y-87796666D01*
X119415476Y-87796666D02*
X119463095Y-87891904D01*
X119177380Y-86987142D02*
X119177380Y-86368095D01*
X119177380Y-86368095D02*
X119558333Y-86701428D01*
X119558333Y-86701428D02*
X119558333Y-86558571D01*
X119558333Y-86558571D02*
X119605952Y-86463333D01*
X119605952Y-86463333D02*
X119653571Y-86415714D01*
X119653571Y-86415714D02*
X119748809Y-86368095D01*
X119748809Y-86368095D02*
X119986904Y-86368095D01*
X119986904Y-86368095D02*
X120082142Y-86415714D01*
X120082142Y-86415714D02*
X120129761Y-86463333D01*
X120129761Y-86463333D02*
X120177380Y-86558571D01*
X120177380Y-86558571D02*
X120177380Y-86844285D01*
X120177380Y-86844285D02*
X120129761Y-86939523D01*
X120129761Y-86939523D02*
X120082142Y-86987142D01*
X119607380Y-81541904D02*
X118607380Y-81541904D01*
X119607380Y-80970476D02*
X119035952Y-81399047D01*
X118607380Y-80970476D02*
X119178809Y-81541904D01*
%TO.C,SW9*%
X102806667Y-106745761D02*
X102949524Y-106793380D01*
X102949524Y-106793380D02*
X103187619Y-106793380D01*
X103187619Y-106793380D02*
X103282857Y-106745761D01*
X103282857Y-106745761D02*
X103330476Y-106698142D01*
X103330476Y-106698142D02*
X103378095Y-106602904D01*
X103378095Y-106602904D02*
X103378095Y-106507666D01*
X103378095Y-106507666D02*
X103330476Y-106412428D01*
X103330476Y-106412428D02*
X103282857Y-106364809D01*
X103282857Y-106364809D02*
X103187619Y-106317190D01*
X103187619Y-106317190D02*
X102997143Y-106269571D01*
X102997143Y-106269571D02*
X102901905Y-106221952D01*
X102901905Y-106221952D02*
X102854286Y-106174333D01*
X102854286Y-106174333D02*
X102806667Y-106079095D01*
X102806667Y-106079095D02*
X102806667Y-105983857D01*
X102806667Y-105983857D02*
X102854286Y-105888619D01*
X102854286Y-105888619D02*
X102901905Y-105841000D01*
X102901905Y-105841000D02*
X102997143Y-105793380D01*
X102997143Y-105793380D02*
X103235238Y-105793380D01*
X103235238Y-105793380D02*
X103378095Y-105841000D01*
X103711429Y-105793380D02*
X103949524Y-106793380D01*
X103949524Y-106793380D02*
X104140000Y-106079095D01*
X104140000Y-106079095D02*
X104330476Y-106793380D01*
X104330476Y-106793380D02*
X104568572Y-105793380D01*
X104997143Y-106793380D02*
X105187619Y-106793380D01*
X105187619Y-106793380D02*
X105282857Y-106745761D01*
X105282857Y-106745761D02*
X105330476Y-106698142D01*
X105330476Y-106698142D02*
X105425714Y-106555285D01*
X105425714Y-106555285D02*
X105473333Y-106364809D01*
X105473333Y-106364809D02*
X105473333Y-105983857D01*
X105473333Y-105983857D02*
X105425714Y-105888619D01*
X105425714Y-105888619D02*
X105378095Y-105841000D01*
X105378095Y-105841000D02*
X105282857Y-105793380D01*
X105282857Y-105793380D02*
X105092381Y-105793380D01*
X105092381Y-105793380D02*
X104997143Y-105841000D01*
X104997143Y-105841000D02*
X104949524Y-105888619D01*
X104949524Y-105888619D02*
X104901905Y-105983857D01*
X104901905Y-105983857D02*
X104901905Y-106221952D01*
X104901905Y-106221952D02*
X104949524Y-106317190D01*
X104949524Y-106317190D02*
X104997143Y-106364809D01*
X104997143Y-106364809D02*
X105092381Y-106412428D01*
X105092381Y-106412428D02*
X105282857Y-106412428D01*
X105282857Y-106412428D02*
X105378095Y-106364809D01*
X105378095Y-106364809D02*
X105425714Y-106317190D01*
X105425714Y-106317190D02*
X105473333Y-106221952D01*
%TO.C,SW7*%
X158686667Y-78805761D02*
X158829524Y-78853380D01*
X158829524Y-78853380D02*
X159067619Y-78853380D01*
X159067619Y-78853380D02*
X159162857Y-78805761D01*
X159162857Y-78805761D02*
X159210476Y-78758142D01*
X159210476Y-78758142D02*
X159258095Y-78662904D01*
X159258095Y-78662904D02*
X159258095Y-78567666D01*
X159258095Y-78567666D02*
X159210476Y-78472428D01*
X159210476Y-78472428D02*
X159162857Y-78424809D01*
X159162857Y-78424809D02*
X159067619Y-78377190D01*
X159067619Y-78377190D02*
X158877143Y-78329571D01*
X158877143Y-78329571D02*
X158781905Y-78281952D01*
X158781905Y-78281952D02*
X158734286Y-78234333D01*
X158734286Y-78234333D02*
X158686667Y-78139095D01*
X158686667Y-78139095D02*
X158686667Y-78043857D01*
X158686667Y-78043857D02*
X158734286Y-77948619D01*
X158734286Y-77948619D02*
X158781905Y-77901000D01*
X158781905Y-77901000D02*
X158877143Y-77853380D01*
X158877143Y-77853380D02*
X159115238Y-77853380D01*
X159115238Y-77853380D02*
X159258095Y-77901000D01*
X159591429Y-77853380D02*
X159829524Y-78853380D01*
X159829524Y-78853380D02*
X160020000Y-78139095D01*
X160020000Y-78139095D02*
X160210476Y-78853380D01*
X160210476Y-78853380D02*
X160448572Y-77853380D01*
X160734286Y-77853380D02*
X161400952Y-77853380D01*
X161400952Y-77853380D02*
X160972381Y-78853380D01*
%TO.C,D11*%
X160817380Y-58364285D02*
X159817380Y-58364285D01*
X159817380Y-58364285D02*
X159817380Y-58126190D01*
X159817380Y-58126190D02*
X159865000Y-57983333D01*
X159865000Y-57983333D02*
X159960238Y-57888095D01*
X159960238Y-57888095D02*
X160055476Y-57840476D01*
X160055476Y-57840476D02*
X160245952Y-57792857D01*
X160245952Y-57792857D02*
X160388809Y-57792857D01*
X160388809Y-57792857D02*
X160579285Y-57840476D01*
X160579285Y-57840476D02*
X160674523Y-57888095D01*
X160674523Y-57888095D02*
X160769761Y-57983333D01*
X160769761Y-57983333D02*
X160817380Y-58126190D01*
X160817380Y-58126190D02*
X160817380Y-58364285D01*
X160817380Y-56840476D02*
X160817380Y-57411904D01*
X160817380Y-57126190D02*
X159817380Y-57126190D01*
X159817380Y-57126190D02*
X159960238Y-57221428D01*
X159960238Y-57221428D02*
X160055476Y-57316666D01*
X160055476Y-57316666D02*
X160103095Y-57411904D01*
X160817380Y-55888095D02*
X160817380Y-56459523D01*
X160817380Y-56173809D02*
X159817380Y-56173809D01*
X159817380Y-56173809D02*
X159960238Y-56269047D01*
X159960238Y-56269047D02*
X160055476Y-56364285D01*
X160055476Y-56364285D02*
X160103095Y-56459523D01*
X160247380Y-51061904D02*
X159247380Y-51061904D01*
X160247380Y-50490476D02*
X159675952Y-50919047D01*
X159247380Y-50490476D02*
X159818809Y-51061904D01*
%TO.C,D19*%
X176057380Y-116784285D02*
X175057380Y-116784285D01*
X175057380Y-116784285D02*
X175057380Y-116546190D01*
X175057380Y-116546190D02*
X175105000Y-116403333D01*
X175105000Y-116403333D02*
X175200238Y-116308095D01*
X175200238Y-116308095D02*
X175295476Y-116260476D01*
X175295476Y-116260476D02*
X175485952Y-116212857D01*
X175485952Y-116212857D02*
X175628809Y-116212857D01*
X175628809Y-116212857D02*
X175819285Y-116260476D01*
X175819285Y-116260476D02*
X175914523Y-116308095D01*
X175914523Y-116308095D02*
X176009761Y-116403333D01*
X176009761Y-116403333D02*
X176057380Y-116546190D01*
X176057380Y-116546190D02*
X176057380Y-116784285D01*
X176057380Y-115260476D02*
X176057380Y-115831904D01*
X176057380Y-115546190D02*
X175057380Y-115546190D01*
X175057380Y-115546190D02*
X175200238Y-115641428D01*
X175200238Y-115641428D02*
X175295476Y-115736666D01*
X175295476Y-115736666D02*
X175343095Y-115831904D01*
X176057380Y-114784285D02*
X176057380Y-114593809D01*
X176057380Y-114593809D02*
X176009761Y-114498571D01*
X176009761Y-114498571D02*
X175962142Y-114450952D01*
X175962142Y-114450952D02*
X175819285Y-114355714D01*
X175819285Y-114355714D02*
X175628809Y-114308095D01*
X175628809Y-114308095D02*
X175247857Y-114308095D01*
X175247857Y-114308095D02*
X175152619Y-114355714D01*
X175152619Y-114355714D02*
X175105000Y-114403333D01*
X175105000Y-114403333D02*
X175057380Y-114498571D01*
X175057380Y-114498571D02*
X175057380Y-114689047D01*
X175057380Y-114689047D02*
X175105000Y-114784285D01*
X175105000Y-114784285D02*
X175152619Y-114831904D01*
X175152619Y-114831904D02*
X175247857Y-114879523D01*
X175247857Y-114879523D02*
X175485952Y-114879523D01*
X175485952Y-114879523D02*
X175581190Y-114831904D01*
X175581190Y-114831904D02*
X175628809Y-114784285D01*
X175628809Y-114784285D02*
X175676428Y-114689047D01*
X175676428Y-114689047D02*
X175676428Y-114498571D01*
X175676428Y-114498571D02*
X175628809Y-114403333D01*
X175628809Y-114403333D02*
X175581190Y-114355714D01*
X175581190Y-114355714D02*
X175485952Y-114308095D01*
X175487380Y-109481904D02*
X174487380Y-109481904D01*
X175487380Y-108910476D02*
X174915952Y-109339047D01*
X174487380Y-108910476D02*
X175058809Y-109481904D01*
%TO.C,D6*%
X128947380Y-101068094D02*
X127947380Y-101068094D01*
X127947380Y-101068094D02*
X127947380Y-100829999D01*
X127947380Y-100829999D02*
X127995000Y-100687142D01*
X127995000Y-100687142D02*
X128090238Y-100591904D01*
X128090238Y-100591904D02*
X128185476Y-100544285D01*
X128185476Y-100544285D02*
X128375952Y-100496666D01*
X128375952Y-100496666D02*
X128518809Y-100496666D01*
X128518809Y-100496666D02*
X128709285Y-100544285D01*
X128709285Y-100544285D02*
X128804523Y-100591904D01*
X128804523Y-100591904D02*
X128899761Y-100687142D01*
X128899761Y-100687142D02*
X128947380Y-100829999D01*
X128947380Y-100829999D02*
X128947380Y-101068094D01*
X127947380Y-99639523D02*
X127947380Y-99829999D01*
X127947380Y-99829999D02*
X127995000Y-99925237D01*
X127995000Y-99925237D02*
X128042619Y-99972856D01*
X128042619Y-99972856D02*
X128185476Y-100068094D01*
X128185476Y-100068094D02*
X128375952Y-100115713D01*
X128375952Y-100115713D02*
X128756904Y-100115713D01*
X128756904Y-100115713D02*
X128852142Y-100068094D01*
X128852142Y-100068094D02*
X128899761Y-100020475D01*
X128899761Y-100020475D02*
X128947380Y-99925237D01*
X128947380Y-99925237D02*
X128947380Y-99734761D01*
X128947380Y-99734761D02*
X128899761Y-99639523D01*
X128899761Y-99639523D02*
X128852142Y-99591904D01*
X128852142Y-99591904D02*
X128756904Y-99544285D01*
X128756904Y-99544285D02*
X128518809Y-99544285D01*
X128518809Y-99544285D02*
X128423571Y-99591904D01*
X128423571Y-99591904D02*
X128375952Y-99639523D01*
X128375952Y-99639523D02*
X128328333Y-99734761D01*
X128328333Y-99734761D02*
X128328333Y-99925237D01*
X128328333Y-99925237D02*
X128375952Y-100020475D01*
X128375952Y-100020475D02*
X128423571Y-100068094D01*
X128423571Y-100068094D02*
X128518809Y-100115713D01*
X130847380Y-104194285D02*
X130847380Y-104765713D01*
X130847380Y-104479999D02*
X129847380Y-104479999D01*
X129847380Y-104479999D02*
X129990238Y-104575237D01*
X129990238Y-104575237D02*
X130085476Y-104670475D01*
X130085476Y-104670475D02*
X130133095Y-104765713D01*
%TO.C,D5*%
X101097380Y-101068094D02*
X100097380Y-101068094D01*
X100097380Y-101068094D02*
X100097380Y-100829999D01*
X100097380Y-100829999D02*
X100145000Y-100687142D01*
X100145000Y-100687142D02*
X100240238Y-100591904D01*
X100240238Y-100591904D02*
X100335476Y-100544285D01*
X100335476Y-100544285D02*
X100525952Y-100496666D01*
X100525952Y-100496666D02*
X100668809Y-100496666D01*
X100668809Y-100496666D02*
X100859285Y-100544285D01*
X100859285Y-100544285D02*
X100954523Y-100591904D01*
X100954523Y-100591904D02*
X101049761Y-100687142D01*
X101049761Y-100687142D02*
X101097380Y-100829999D01*
X101097380Y-100829999D02*
X101097380Y-101068094D01*
X100097380Y-99591904D02*
X100097380Y-100068094D01*
X100097380Y-100068094D02*
X100573571Y-100115713D01*
X100573571Y-100115713D02*
X100525952Y-100068094D01*
X100525952Y-100068094D02*
X100478333Y-99972856D01*
X100478333Y-99972856D02*
X100478333Y-99734761D01*
X100478333Y-99734761D02*
X100525952Y-99639523D01*
X100525952Y-99639523D02*
X100573571Y-99591904D01*
X100573571Y-99591904D02*
X100668809Y-99544285D01*
X100668809Y-99544285D02*
X100906904Y-99544285D01*
X100906904Y-99544285D02*
X101002142Y-99591904D01*
X101002142Y-99591904D02*
X101049761Y-99639523D01*
X101049761Y-99639523D02*
X101097380Y-99734761D01*
X101097380Y-99734761D02*
X101097380Y-99972856D01*
X101097380Y-99972856D02*
X101049761Y-100068094D01*
X101049761Y-100068094D02*
X101002142Y-100115713D01*
X102997380Y-104194285D02*
X102997380Y-104765713D01*
X102997380Y-104479999D02*
X101997380Y-104479999D01*
X101997380Y-104479999D02*
X102140238Y-104575237D01*
X102140238Y-104575237D02*
X102235476Y-104670475D01*
X102235476Y-104670475D02*
X102283095Y-104765713D01*
%TO.C,D1*%
X90937380Y-70588094D02*
X89937380Y-70588094D01*
X89937380Y-70588094D02*
X89937380Y-70349999D01*
X89937380Y-70349999D02*
X89985000Y-70207142D01*
X89985000Y-70207142D02*
X90080238Y-70111904D01*
X90080238Y-70111904D02*
X90175476Y-70064285D01*
X90175476Y-70064285D02*
X90365952Y-70016666D01*
X90365952Y-70016666D02*
X90508809Y-70016666D01*
X90508809Y-70016666D02*
X90699285Y-70064285D01*
X90699285Y-70064285D02*
X90794523Y-70111904D01*
X90794523Y-70111904D02*
X90889761Y-70207142D01*
X90889761Y-70207142D02*
X90937380Y-70349999D01*
X90937380Y-70349999D02*
X90937380Y-70588094D01*
X90937380Y-69064285D02*
X90937380Y-69635713D01*
X90937380Y-69349999D02*
X89937380Y-69349999D01*
X89937380Y-69349999D02*
X90080238Y-69445237D01*
X90080238Y-69445237D02*
X90175476Y-69540475D01*
X90175476Y-69540475D02*
X90223095Y-69635713D01*
X92837380Y-73714285D02*
X92837380Y-74285713D01*
X92837380Y-73999999D02*
X91837380Y-73999999D01*
X91837380Y-73999999D02*
X91980238Y-74095237D01*
X91980238Y-74095237D02*
X92075476Y-74190475D01*
X92075476Y-74190475D02*
X92123095Y-74285713D01*
%TO.C,SW5*%
X102806667Y-78805761D02*
X102949524Y-78853380D01*
X102949524Y-78853380D02*
X103187619Y-78853380D01*
X103187619Y-78853380D02*
X103282857Y-78805761D01*
X103282857Y-78805761D02*
X103330476Y-78758142D01*
X103330476Y-78758142D02*
X103378095Y-78662904D01*
X103378095Y-78662904D02*
X103378095Y-78567666D01*
X103378095Y-78567666D02*
X103330476Y-78472428D01*
X103330476Y-78472428D02*
X103282857Y-78424809D01*
X103282857Y-78424809D02*
X103187619Y-78377190D01*
X103187619Y-78377190D02*
X102997143Y-78329571D01*
X102997143Y-78329571D02*
X102901905Y-78281952D01*
X102901905Y-78281952D02*
X102854286Y-78234333D01*
X102854286Y-78234333D02*
X102806667Y-78139095D01*
X102806667Y-78139095D02*
X102806667Y-78043857D01*
X102806667Y-78043857D02*
X102854286Y-77948619D01*
X102854286Y-77948619D02*
X102901905Y-77901000D01*
X102901905Y-77901000D02*
X102997143Y-77853380D01*
X102997143Y-77853380D02*
X103235238Y-77853380D01*
X103235238Y-77853380D02*
X103378095Y-77901000D01*
X103711429Y-77853380D02*
X103949524Y-78853380D01*
X103949524Y-78853380D02*
X104140000Y-78139095D01*
X104140000Y-78139095D02*
X104330476Y-78853380D01*
X104330476Y-78853380D02*
X104568572Y-77853380D01*
X105425714Y-77853380D02*
X104949524Y-77853380D01*
X104949524Y-77853380D02*
X104901905Y-78329571D01*
X104901905Y-78329571D02*
X104949524Y-78281952D01*
X104949524Y-78281952D02*
X105044762Y-78234333D01*
X105044762Y-78234333D02*
X105282857Y-78234333D01*
X105282857Y-78234333D02*
X105378095Y-78281952D01*
X105378095Y-78281952D02*
X105425714Y-78329571D01*
X105425714Y-78329571D02*
X105473333Y-78424809D01*
X105473333Y-78424809D02*
X105473333Y-78662904D01*
X105473333Y-78662904D02*
X105425714Y-78758142D01*
X105425714Y-78758142D02*
X105378095Y-78805761D01*
X105378095Y-78805761D02*
X105282857Y-78853380D01*
X105282857Y-78853380D02*
X105044762Y-78853380D01*
X105044762Y-78853380D02*
X104949524Y-78805761D01*
X104949524Y-78805761D02*
X104901905Y-78758142D01*
%TO.C,SW2*%
X118046667Y-48325761D02*
X118189524Y-48373380D01*
X118189524Y-48373380D02*
X118427619Y-48373380D01*
X118427619Y-48373380D02*
X118522857Y-48325761D01*
X118522857Y-48325761D02*
X118570476Y-48278142D01*
X118570476Y-48278142D02*
X118618095Y-48182904D01*
X118618095Y-48182904D02*
X118618095Y-48087666D01*
X118618095Y-48087666D02*
X118570476Y-47992428D01*
X118570476Y-47992428D02*
X118522857Y-47944809D01*
X118522857Y-47944809D02*
X118427619Y-47897190D01*
X118427619Y-47897190D02*
X118237143Y-47849571D01*
X118237143Y-47849571D02*
X118141905Y-47801952D01*
X118141905Y-47801952D02*
X118094286Y-47754333D01*
X118094286Y-47754333D02*
X118046667Y-47659095D01*
X118046667Y-47659095D02*
X118046667Y-47563857D01*
X118046667Y-47563857D02*
X118094286Y-47468619D01*
X118094286Y-47468619D02*
X118141905Y-47421000D01*
X118141905Y-47421000D02*
X118237143Y-47373380D01*
X118237143Y-47373380D02*
X118475238Y-47373380D01*
X118475238Y-47373380D02*
X118618095Y-47421000D01*
X118951429Y-47373380D02*
X119189524Y-48373380D01*
X119189524Y-48373380D02*
X119380000Y-47659095D01*
X119380000Y-47659095D02*
X119570476Y-48373380D01*
X119570476Y-48373380D02*
X119808572Y-47373380D01*
X120141905Y-47468619D02*
X120189524Y-47421000D01*
X120189524Y-47421000D02*
X120284762Y-47373380D01*
X120284762Y-47373380D02*
X120522857Y-47373380D01*
X120522857Y-47373380D02*
X120618095Y-47421000D01*
X120618095Y-47421000D02*
X120665714Y-47468619D01*
X120665714Y-47468619D02*
X120713333Y-47563857D01*
X120713333Y-47563857D02*
X120713333Y-47659095D01*
X120713333Y-47659095D02*
X120665714Y-47801952D01*
X120665714Y-47801952D02*
X120094286Y-48373380D01*
X120094286Y-48373380D02*
X120713333Y-48373380D01*
%TO.C,D14*%
X148117380Y-88844285D02*
X147117380Y-88844285D01*
X147117380Y-88844285D02*
X147117380Y-88606190D01*
X147117380Y-88606190D02*
X147165000Y-88463333D01*
X147165000Y-88463333D02*
X147260238Y-88368095D01*
X147260238Y-88368095D02*
X147355476Y-88320476D01*
X147355476Y-88320476D02*
X147545952Y-88272857D01*
X147545952Y-88272857D02*
X147688809Y-88272857D01*
X147688809Y-88272857D02*
X147879285Y-88320476D01*
X147879285Y-88320476D02*
X147974523Y-88368095D01*
X147974523Y-88368095D02*
X148069761Y-88463333D01*
X148069761Y-88463333D02*
X148117380Y-88606190D01*
X148117380Y-88606190D02*
X148117380Y-88844285D01*
X148117380Y-87320476D02*
X148117380Y-87891904D01*
X148117380Y-87606190D02*
X147117380Y-87606190D01*
X147117380Y-87606190D02*
X147260238Y-87701428D01*
X147260238Y-87701428D02*
X147355476Y-87796666D01*
X147355476Y-87796666D02*
X147403095Y-87891904D01*
X147450714Y-86463333D02*
X148117380Y-86463333D01*
X147069761Y-86701428D02*
X147784047Y-86939523D01*
X147784047Y-86939523D02*
X147784047Y-86320476D01*
X147547380Y-81541904D02*
X146547380Y-81541904D01*
X147547380Y-80970476D02*
X146975952Y-81399047D01*
X146547380Y-80970476D02*
X147118809Y-81541904D01*
%TO.C,D16*%
X92237380Y-116784285D02*
X91237380Y-116784285D01*
X91237380Y-116784285D02*
X91237380Y-116546190D01*
X91237380Y-116546190D02*
X91285000Y-116403333D01*
X91285000Y-116403333D02*
X91380238Y-116308095D01*
X91380238Y-116308095D02*
X91475476Y-116260476D01*
X91475476Y-116260476D02*
X91665952Y-116212857D01*
X91665952Y-116212857D02*
X91808809Y-116212857D01*
X91808809Y-116212857D02*
X91999285Y-116260476D01*
X91999285Y-116260476D02*
X92094523Y-116308095D01*
X92094523Y-116308095D02*
X92189761Y-116403333D01*
X92189761Y-116403333D02*
X92237380Y-116546190D01*
X92237380Y-116546190D02*
X92237380Y-116784285D01*
X92237380Y-115260476D02*
X92237380Y-115831904D01*
X92237380Y-115546190D02*
X91237380Y-115546190D01*
X91237380Y-115546190D02*
X91380238Y-115641428D01*
X91380238Y-115641428D02*
X91475476Y-115736666D01*
X91475476Y-115736666D02*
X91523095Y-115831904D01*
X91237380Y-114403333D02*
X91237380Y-114593809D01*
X91237380Y-114593809D02*
X91285000Y-114689047D01*
X91285000Y-114689047D02*
X91332619Y-114736666D01*
X91332619Y-114736666D02*
X91475476Y-114831904D01*
X91475476Y-114831904D02*
X91665952Y-114879523D01*
X91665952Y-114879523D02*
X92046904Y-114879523D01*
X92046904Y-114879523D02*
X92142142Y-114831904D01*
X92142142Y-114831904D02*
X92189761Y-114784285D01*
X92189761Y-114784285D02*
X92237380Y-114689047D01*
X92237380Y-114689047D02*
X92237380Y-114498571D01*
X92237380Y-114498571D02*
X92189761Y-114403333D01*
X92189761Y-114403333D02*
X92142142Y-114355714D01*
X92142142Y-114355714D02*
X92046904Y-114308095D01*
X92046904Y-114308095D02*
X91808809Y-114308095D01*
X91808809Y-114308095D02*
X91713571Y-114355714D01*
X91713571Y-114355714D02*
X91665952Y-114403333D01*
X91665952Y-114403333D02*
X91618333Y-114498571D01*
X91618333Y-114498571D02*
X91618333Y-114689047D01*
X91618333Y-114689047D02*
X91665952Y-114784285D01*
X91665952Y-114784285D02*
X91713571Y-114831904D01*
X91713571Y-114831904D02*
X91808809Y-114879523D01*
X91667380Y-109481904D02*
X90667380Y-109481904D01*
X91667380Y-108910476D02*
X91095952Y-109339047D01*
X90667380Y-108910476D02*
X91238809Y-109481904D01*
%TO.C,D18*%
X148117380Y-116784285D02*
X147117380Y-116784285D01*
X147117380Y-116784285D02*
X147117380Y-116546190D01*
X147117380Y-116546190D02*
X147165000Y-116403333D01*
X147165000Y-116403333D02*
X147260238Y-116308095D01*
X147260238Y-116308095D02*
X147355476Y-116260476D01*
X147355476Y-116260476D02*
X147545952Y-116212857D01*
X147545952Y-116212857D02*
X147688809Y-116212857D01*
X147688809Y-116212857D02*
X147879285Y-116260476D01*
X147879285Y-116260476D02*
X147974523Y-116308095D01*
X147974523Y-116308095D02*
X148069761Y-116403333D01*
X148069761Y-116403333D02*
X148117380Y-116546190D01*
X148117380Y-116546190D02*
X148117380Y-116784285D01*
X148117380Y-115260476D02*
X148117380Y-115831904D01*
X148117380Y-115546190D02*
X147117380Y-115546190D01*
X147117380Y-115546190D02*
X147260238Y-115641428D01*
X147260238Y-115641428D02*
X147355476Y-115736666D01*
X147355476Y-115736666D02*
X147403095Y-115831904D01*
X147545952Y-114689047D02*
X147498333Y-114784285D01*
X147498333Y-114784285D02*
X147450714Y-114831904D01*
X147450714Y-114831904D02*
X147355476Y-114879523D01*
X147355476Y-114879523D02*
X147307857Y-114879523D01*
X147307857Y-114879523D02*
X147212619Y-114831904D01*
X147212619Y-114831904D02*
X147165000Y-114784285D01*
X147165000Y-114784285D02*
X147117380Y-114689047D01*
X147117380Y-114689047D02*
X147117380Y-114498571D01*
X147117380Y-114498571D02*
X147165000Y-114403333D01*
X147165000Y-114403333D02*
X147212619Y-114355714D01*
X147212619Y-114355714D02*
X147307857Y-114308095D01*
X147307857Y-114308095D02*
X147355476Y-114308095D01*
X147355476Y-114308095D02*
X147450714Y-114355714D01*
X147450714Y-114355714D02*
X147498333Y-114403333D01*
X147498333Y-114403333D02*
X147545952Y-114498571D01*
X147545952Y-114498571D02*
X147545952Y-114689047D01*
X147545952Y-114689047D02*
X147593571Y-114784285D01*
X147593571Y-114784285D02*
X147641190Y-114831904D01*
X147641190Y-114831904D02*
X147736428Y-114879523D01*
X147736428Y-114879523D02*
X147926904Y-114879523D01*
X147926904Y-114879523D02*
X148022142Y-114831904D01*
X148022142Y-114831904D02*
X148069761Y-114784285D01*
X148069761Y-114784285D02*
X148117380Y-114689047D01*
X148117380Y-114689047D02*
X148117380Y-114498571D01*
X148117380Y-114498571D02*
X148069761Y-114403333D01*
X148069761Y-114403333D02*
X148022142Y-114355714D01*
X148022142Y-114355714D02*
X147926904Y-114308095D01*
X147926904Y-114308095D02*
X147736428Y-114308095D01*
X147736428Y-114308095D02*
X147641190Y-114355714D01*
X147641190Y-114355714D02*
X147593571Y-114403333D01*
X147593571Y-114403333D02*
X147545952Y-114498571D01*
X147547380Y-109481904D02*
X146547380Y-109481904D01*
X147547380Y-108910476D02*
X146975952Y-109339047D01*
X146547380Y-108910476D02*
X147118809Y-109481904D01*
D11*
%TO.C,D22*%
X157360000Y-131920000D02*
X157360000Y-124620000D01*
X162860000Y-131920000D02*
X162860000Y-124620000D01*
X162860000Y-124620000D02*
X161710000Y-124620000D01*
%TO.C,D21*%
X129330000Y-131920000D02*
X129330000Y-124620000D01*
X134830000Y-131920000D02*
X134830000Y-124620000D01*
X134830000Y-124620000D02*
X133680000Y-124620000D01*
%TO.C,D20*%
X101390000Y-131920000D02*
X101390000Y-124620000D01*
X106890000Y-131920000D02*
X106890000Y-124620000D01*
X106890000Y-124620000D02*
X105740000Y-124620000D01*
%TO.C,J1*%
X57920000Y-56307500D02*
X58920000Y-56307500D01*
X58920000Y-56307500D02*
X58420000Y-55307500D01*
X58420000Y-55307500D02*
X57920000Y-56307500D01*
X53210000Y-49687500D02*
X53210000Y-40567500D01*
X61450000Y-49687500D02*
X61450000Y-40567500D01*
X65550000Y-49687500D02*
X65550000Y-40567500D01*
X73790000Y-49687500D02*
X53210000Y-49687500D01*
X53210000Y-40567500D02*
X73790000Y-40567500D01*
X73790000Y-40567500D02*
X73790000Y-49687500D01*
%TO.C,SW4*%
X69215000Y-79375000D02*
X83185000Y-79375000D01*
X69215000Y-93345000D02*
X69215000Y-79375000D01*
X83185000Y-79375000D02*
X83185000Y-93345000D01*
X83185000Y-93345000D02*
X69215000Y-93345000D01*
%TO.C,D8*%
X73450000Y-131920000D02*
X73450000Y-124620000D01*
X78950000Y-131920000D02*
X78950000Y-124620000D01*
X78950000Y-124620000D02*
X77800000Y-124620000D01*
%TO.C,SW6*%
X125095000Y-79375000D02*
X139065000Y-79375000D01*
X125095000Y-93345000D02*
X125095000Y-79375000D01*
X139065000Y-79375000D02*
X139065000Y-93345000D01*
X139065000Y-93345000D02*
X125095000Y-93345000D01*
%TO.C,SW1*%
X100965000Y-62865000D02*
X86995000Y-62865000D01*
X100965000Y-48895000D02*
X100965000Y-62865000D01*
X86995000Y-62865000D02*
X86995000Y-48895000D01*
X86995000Y-48895000D02*
X100965000Y-48895000D01*
%TO.C,SW8*%
X69215000Y-107315000D02*
X83185000Y-107315000D01*
X69215000Y-121285000D02*
X69215000Y-107315000D01*
X83185000Y-107315000D02*
X83185000Y-121285000D01*
X83185000Y-121285000D02*
X69215000Y-121285000D01*
%TO.C,D9*%
X106680000Y-52440000D02*
X106680000Y-52580000D01*
X108650000Y-52580000D02*
X104710000Y-52580000D01*
X104710000Y-52580000D02*
X104710000Y-61720000D01*
X108650000Y-53915000D02*
X104710000Y-53915000D01*
X108650000Y-54035000D02*
X104710000Y-54035000D01*
X108650000Y-54155000D02*
X104710000Y-54155000D01*
X108650000Y-61720000D02*
X108650000Y-52580000D01*
X104710000Y-61720000D02*
X108650000Y-61720000D01*
X106680000Y-61860000D02*
X106680000Y-61720000D01*
%TO.C,SW11*%
X153035000Y-107315000D02*
X167005000Y-107315000D01*
X153035000Y-121285000D02*
X153035000Y-107315000D01*
X167005000Y-107315000D02*
X167005000Y-121285000D01*
X167005000Y-121285000D02*
X153035000Y-121285000D01*
%TO.C,D7*%
X162770000Y-96680000D02*
X161620000Y-96680000D01*
X162770000Y-103980000D02*
X162770000Y-96680000D01*
X157270000Y-103980000D02*
X157270000Y-96680000D01*
%TO.C,SW10*%
X125095000Y-107315000D02*
X139065000Y-107315000D01*
X125095000Y-121285000D02*
X125095000Y-107315000D01*
X139065000Y-107315000D02*
X139065000Y-121285000D01*
X139065000Y-121285000D02*
X125095000Y-121285000D01*
%TO.C,D4*%
X78950000Y-96680000D02*
X77800000Y-96680000D01*
X78950000Y-103980000D02*
X78950000Y-96680000D01*
X73450000Y-103980000D02*
X73450000Y-96680000D01*
%TO.C,D17*%
X116840000Y-110860000D02*
X116840000Y-111000000D01*
X118810000Y-111000000D02*
X114870000Y-111000000D01*
X114870000Y-111000000D02*
X114870000Y-120140000D01*
X118810000Y-112335000D02*
X114870000Y-112335000D01*
X118810000Y-112455000D02*
X114870000Y-112455000D01*
X118810000Y-112575000D02*
X114870000Y-112575000D01*
X118810000Y-120140000D02*
X118810000Y-111000000D01*
X114870000Y-120140000D02*
X118810000Y-120140000D01*
X116840000Y-120280000D02*
X116840000Y-120140000D01*
%TO.C,SW3*%
X151765000Y-62865000D02*
X137795000Y-62865000D01*
X151765000Y-48895000D02*
X151765000Y-62865000D01*
X137795000Y-62865000D02*
X137795000Y-48895000D01*
X137795000Y-48895000D02*
X151765000Y-48895000D01*
%TO.C,D15*%
X172720000Y-82920000D02*
X172720000Y-83060000D01*
X174690000Y-83060000D02*
X170750000Y-83060000D01*
X170750000Y-83060000D02*
X170750000Y-92200000D01*
X174690000Y-84395000D02*
X170750000Y-84395000D01*
X174690000Y-84515000D02*
X170750000Y-84515000D01*
X174690000Y-84635000D02*
X170750000Y-84635000D01*
X174690000Y-92200000D02*
X174690000Y-83060000D01*
X170750000Y-92200000D02*
X174690000Y-92200000D01*
X172720000Y-92340000D02*
X172720000Y-92200000D01*
%TO.C,D10*%
X132080000Y-52440000D02*
X132080000Y-52580000D01*
X134050000Y-52580000D02*
X130110000Y-52580000D01*
X130110000Y-52580000D02*
X130110000Y-61720000D01*
X134050000Y-53915000D02*
X130110000Y-53915000D01*
X134050000Y-54035000D02*
X130110000Y-54035000D01*
X134050000Y-54155000D02*
X130110000Y-54155000D01*
X134050000Y-61720000D02*
X134050000Y-52580000D01*
X130110000Y-61720000D02*
X134050000Y-61720000D01*
X132080000Y-61860000D02*
X132080000Y-61720000D01*
%TO.C,D3*%
X142120000Y-73500000D02*
X142120000Y-66200000D01*
X147620000Y-73500000D02*
X147620000Y-66200000D01*
X147620000Y-66200000D02*
X146470000Y-66200000D01*
%TO.C,D12*%
X88900000Y-82920000D02*
X88900000Y-83060000D01*
X90870000Y-83060000D02*
X86930000Y-83060000D01*
X86930000Y-83060000D02*
X86930000Y-92200000D01*
X90870000Y-84395000D02*
X86930000Y-84395000D01*
X90870000Y-84515000D02*
X86930000Y-84515000D01*
X90870000Y-84635000D02*
X86930000Y-84635000D01*
X90870000Y-92200000D02*
X90870000Y-83060000D01*
X86930000Y-92200000D02*
X90870000Y-92200000D01*
X88900000Y-92340000D02*
X88900000Y-92200000D01*
%TO.C,D2*%
X116630000Y-73500000D02*
X116630000Y-66200000D01*
X122130000Y-73500000D02*
X122130000Y-66200000D01*
X122130000Y-66200000D02*
X120980000Y-66200000D01*
%TO.C,D13*%
X116840000Y-82920000D02*
X116840000Y-83060000D01*
X118810000Y-83060000D02*
X114870000Y-83060000D01*
X114870000Y-83060000D02*
X114870000Y-92200000D01*
X118810000Y-84395000D02*
X114870000Y-84395000D01*
X118810000Y-84515000D02*
X114870000Y-84515000D01*
X118810000Y-84635000D02*
X114870000Y-84635000D01*
X118810000Y-92200000D02*
X118810000Y-83060000D01*
X114870000Y-92200000D02*
X118810000Y-92200000D01*
X116840000Y-92340000D02*
X116840000Y-92200000D01*
%TO.C,SW9*%
X111125000Y-121285000D02*
X97155000Y-121285000D01*
X111125000Y-107315000D02*
X111125000Y-121285000D01*
X97155000Y-121285000D02*
X97155000Y-107315000D01*
X97155000Y-107315000D02*
X111125000Y-107315000D01*
%TO.C,SW7*%
X153035000Y-79375000D02*
X167005000Y-79375000D01*
X153035000Y-93345000D02*
X153035000Y-79375000D01*
X167005000Y-79375000D02*
X167005000Y-93345000D01*
X167005000Y-93345000D02*
X153035000Y-93345000D01*
%TO.C,D11*%
X157480000Y-52440000D02*
X157480000Y-52580000D01*
X159450000Y-52580000D02*
X155510000Y-52580000D01*
X155510000Y-52580000D02*
X155510000Y-61720000D01*
X159450000Y-53915000D02*
X155510000Y-53915000D01*
X159450000Y-54035000D02*
X155510000Y-54035000D01*
X159450000Y-54155000D02*
X155510000Y-54155000D01*
X159450000Y-61720000D02*
X159450000Y-52580000D01*
X155510000Y-61720000D02*
X159450000Y-61720000D01*
X157480000Y-61860000D02*
X157480000Y-61720000D01*
%TO.C,D19*%
X172720000Y-110860000D02*
X172720000Y-111000000D01*
X174690000Y-111000000D02*
X170750000Y-111000000D01*
X170750000Y-111000000D02*
X170750000Y-120140000D01*
X174690000Y-112335000D02*
X170750000Y-112335000D01*
X174690000Y-112455000D02*
X170750000Y-112455000D01*
X174690000Y-112575000D02*
X170750000Y-112575000D01*
X174690000Y-120140000D02*
X174690000Y-111000000D01*
X170750000Y-120140000D02*
X174690000Y-120140000D01*
X172720000Y-120280000D02*
X172720000Y-120140000D01*
%TO.C,D6*%
X134830000Y-96680000D02*
X133680000Y-96680000D01*
X134830000Y-103980000D02*
X134830000Y-96680000D01*
X129330000Y-103980000D02*
X129330000Y-96680000D01*
%TO.C,D5*%
X106980000Y-96680000D02*
X105830000Y-96680000D01*
X106980000Y-103980000D02*
X106980000Y-96680000D01*
X101480000Y-103980000D02*
X101480000Y-96680000D01*
%TO.C,D1*%
X91320000Y-73500000D02*
X91320000Y-66200000D01*
X96820000Y-73500000D02*
X96820000Y-66200000D01*
X96820000Y-66200000D02*
X95670000Y-66200000D01*
%TO.C,SW5*%
X97155000Y-79375000D02*
X111125000Y-79375000D01*
X97155000Y-93345000D02*
X97155000Y-79375000D01*
X111125000Y-79375000D02*
X111125000Y-93345000D01*
X111125000Y-93345000D02*
X97155000Y-93345000D01*
%TO.C,SW2*%
X112395000Y-48895000D02*
X126365000Y-48895000D01*
X112395000Y-62865000D02*
X112395000Y-48895000D01*
X126365000Y-48895000D02*
X126365000Y-62865000D01*
X126365000Y-62865000D02*
X112395000Y-62865000D01*
%TO.C,D14*%
X144780000Y-82920000D02*
X144780000Y-83060000D01*
X146750000Y-83060000D02*
X142810000Y-83060000D01*
X142810000Y-83060000D02*
X142810000Y-92200000D01*
X146750000Y-84395000D02*
X142810000Y-84395000D01*
X146750000Y-84515000D02*
X142810000Y-84515000D01*
X146750000Y-84635000D02*
X142810000Y-84635000D01*
X146750000Y-92200000D02*
X146750000Y-83060000D01*
X142810000Y-92200000D02*
X146750000Y-92200000D01*
X144780000Y-92340000D02*
X144780000Y-92200000D01*
%TO.C,D16*%
X88900000Y-110860000D02*
X88900000Y-111000000D01*
X90870000Y-111000000D02*
X86930000Y-111000000D01*
X86930000Y-111000000D02*
X86930000Y-120140000D01*
X90870000Y-112335000D02*
X86930000Y-112335000D01*
X90870000Y-112455000D02*
X86930000Y-112455000D01*
X90870000Y-112575000D02*
X86930000Y-112575000D01*
X90870000Y-120140000D02*
X90870000Y-111000000D01*
X86930000Y-120140000D02*
X90870000Y-120140000D01*
X88900000Y-120280000D02*
X88900000Y-120140000D01*
%TO.C,D18*%
X144780000Y-110860000D02*
X144780000Y-111000000D01*
X146750000Y-111000000D02*
X142810000Y-111000000D01*
X142810000Y-111000000D02*
X142810000Y-120140000D01*
X146750000Y-112335000D02*
X142810000Y-112335000D01*
X146750000Y-112455000D02*
X142810000Y-112455000D01*
X146750000Y-112575000D02*
X142810000Y-112575000D01*
X146750000Y-120140000D02*
X146750000Y-111000000D01*
X142810000Y-120140000D02*
X146750000Y-120140000D01*
X144780000Y-120280000D02*
X144780000Y-120140000D01*
%TD*%
M02*
